SplineFontDB: 3.2
FontName: AtlanticCruise
FullName: Atlantic Cruise
FamilyName: Atlantic Cruise
Weight: Book
Copyright: Atlantic Cruise (c) Kustomtype 2014. All Rights Reserved
Version: 1.00 December 25, 2014, initial release
ItalicAngle: -8
UnderlinePosition: -125
UnderlineWidth: 50
Ascent: 800
Descent: 200
InvalidEm: 0
sfntRevision: 0x00010000
LayerCount: 2
Layer: 0 1 "Back" 1
Layer: 1 1 "Fore" 0
XUID: [1021 241 -713367717 24245]
StyleMap: 0x0040
FSType: 8
OS2Version: 3
OS2_WeightWidthSlopeOnly: 0
OS2_UseTypoMetrics: 0
CreationTime: 1419159888
ModificationTime: 1665026416
PfmFamily: 17
TTFWeight: 400
TTFWidth: 5
LineGap: 0
VLineGap: 0
Panose: 2 0 0 0 0 0 0 9 0 0
OS2TypoAscent: 700
OS2TypoAOffset: 0
OS2TypoDescent: -200
OS2TypoDOffset: 0
OS2TypoLinegap: 0
OS2WinAscent: 829
OS2WinAOffset: 0
OS2WinDescent: 140
OS2WinDOffset: 0
HheadAscent: 700
HheadAOffset: 0
HheadDescent: -200
HheadDOffset: 0
OS2SubXSize: 700
OS2SubYSize: 650
OS2SubXOff: 0
OS2SubYOff: 140
OS2SupXSize: 700
OS2SupYSize: 650
OS2SupXOff: 0
OS2SupYOff: 477
OS2StrikeYSize: 50
OS2StrikeYPos: 250
OS2CapHeight: 699
OS2XHeight: 569
OS2Vendor: 'KTF '
OS2CodePages: 20000093.00000000
OS2UnicodeRanges: 8000006f.40000002.00000000.00000000
Lookup: 258 0 0 "'kern' Horizontal Kerning in Latin lookup 0" { "'kern' Horizontal Kerning in Latin lookup 0 subtable"  } ['kern' ('DFLT' <'dflt' > 'latn' <'dflt' > ) ]
DEI: 91125
TtTable: prep
PUSHW_1
 0
CALL
SVTCA[y-axis]
PUSHW_3
 1
 2
 2
CALL
SVTCA[x-axis]
PUSHW_3
 3
 1
 2
CALL
SVTCA[x-axis]
PUSHW_8
 3
 91
 73
 57
 40
 28
 0
 8
CALL
SVTCA[y-axis]
PUSHW_8
 1
 88
 73
 57
 40
 28
 0
 8
CALL
PUSHW_8
 2
 123
 100
 78
 56
 28
 0
 8
CALL
SVTCA[y-axis]
PUSHW_3
 4
 1
 7
CALL
PUSHW_1
 0
DUP
RCVT
RDTG
ROUND[Black]
RTG
WCVTP
EndTTInstrs
TtTable: fpgm
PUSHW_1
 0
FDEF
MPPEM
PUSHW_1
 9
LT
IF
PUSHB_2
 1
 1
INSTCTRL
EIF
PUSHW_1
 511
SCANCTRL
PUSHW_1
 68
SCVTCI
PUSHW_2
 9
 3
SDS
SDB
ENDF
PUSHW_1
 1
FDEF
DUP
DUP
RCVT
ROUND[Black]
WCVTP
PUSHB_1
 1
ADD
ENDF
PUSHW_1
 2
FDEF
PUSHW_1
 1
LOOPCALL

StartChar: Abreve
Encoding: 258 258 1
Width: 385
GlyphClass: 1
Flags: W
LayerCount: 2
Fore
SplineSet
205 699 m 1,0,-1
 379 0 l 1,1,-1
 314 0 l 1,2,-1
 290 98 l 1,3,-1
 95 98 l 1,4,-1
 70 0 l 1,5,-1
 6 0 l 1,6,-1
 179 699 l 1,7,-1
 205 699 l 1,0,-1
274 161 m 1,8,-1
 193 489 l 1,9,-1
 110 161 l 1,10,-1
 274 161 l 1,8,-1
141 823 m 1,11,12
 142 799 142 799 154 784 c 0,13,14
 164 771 164 771 191 771 c 256,15,16
 218 771 218 771 228 784 c 0,17,18
 240 799 240 799 241 823 c 1,19,-1
 278 823 l 1,20,21
 278 768 278 768 256 743 c 0,22,23
 233 716 233 716 191 716 c 256,24,25
 149 716 149 716 127 743 c 0,26,27
 104 769 104 769 104 823 c 1,28,-1
 141 823 l 1,11,12
EndSplineSet
Validated: 1
EndChar

StartChar: Acircumflex.001
Encoding: 194 194 2
Width: 385
GlyphClass: 1
Flags: W
LayerCount: 2
Fore
SplineSet
205 699 m 1,0,-1
 379 0 l 1,1,-1
 314 0 l 1,2,-1
 290 98 l 1,3,-1
 95 98 l 1,4,-1
 70 0 l 1,5,-1
 6 0 l 1,6,-1
 179 699 l 1,7,-1
 205 699 l 1,0,-1
274 161 m 1,8,-1
 193 489 l 1,9,-1
 110 161 l 1,10,-1
 274 161 l 1,8,-1
277 725 m 1,11,-1
 228 725 l 1,12,-1
 194 775 l 1,13,-1
 160 725 l 1,14,-1
 112 725 l 1,15,-1
 171 825 l 1,16,-1
 218 825 l 1,17,-1
 277 725 l 1,11,-1
EndSplineSet
Validated: 1
EndChar

StartChar: Adieresis.001
Encoding: 196 196 3
Width: 385
GlyphClass: 1
Flags: W
LayerCount: 2
Fore
SplineSet
205 699 m 1,0,-1
 379 0 l 1,1,-1
 314 0 l 1,2,-1
 290 98 l 1,3,-1
 95 98 l 1,4,-1
 70 0 l 1,5,-1
 6 0 l 1,6,-1
 179 699 l 1,7,-1
 205 699 l 1,0,-1
274 161 m 1,8,-1
 193 489 l 1,9,-1
 110 161 l 1,10,-1
 274 161 l 1,8,-1
224 751 m 1,11,-1
 224 824 l 1,12,-1
 288 824 l 1,13,-1
 288 751 l 1,14,-1
 224 751 l 1,11,-1
98 751 m 1,15,-1
 98 824 l 1,16,-1
 161 824 l 1,17,-1
 161 751 l 1,18,-1
 98 751 l 1,15,-1
EndSplineSet
Validated: 1
EndChar

StartChar: Aogonek.001
Encoding: 260 260 4
Width: 385
GlyphClass: 1
Flags: W
LayerCount: 2
Fore
SplineSet
205 699 m 1,0,-1
 379 0 l 1,1,-1
 314 0 l 1,2,-1
 290 98 l 1,3,-1
 95 98 l 1,4,-1
 70 0 l 1,5,-1
 6 0 l 1,6,-1
 179 699 l 1,7,-1
 205 699 l 1,0,-1
274 161 m 1,8,-1
 193 489 l 1,9,-1
 110 161 l 1,10,-1
 274 161 l 1,8,-1
379 0 m 1,11,12
 322 -45 322 -45 322 -80 c 0,13,14
 322 -104 322 -104 352 -104 c 2,15,-1
 386 -104 l 1,16,-1
 386 -159 l 1,17,-1
 352 -159 l 2,18,19
 269 -159 269 -159 269 -96 c 0,20,21
 269 -52 269 -52 337 0 c 5,22,-1
 379 0 l 1,11,12
EndSplineSet
Validated: 5
EndChar

StartChar: B
Encoding: 66 66 5
Width: 369
GlyphClass: 1
Flags: W
LayerCount: 2
Fore
SplineSet
122 699 m 1,0,1
 197 689 197 689 241 646 c 0,2,3
 284 603 284 603 284 534 c 0,4,5
 284 470 284 470 235 424 c 1,6,7
 262 410 262 410 283 390 c 0,8,9
 294 379 294 379 303 367.5 c 128,-1,10
 312 356 312 356 320 343 c 0,11,12
 335 317 335 317 344 287 c 0,13,14
 352 255 352 255 352 227 c 0,15,16
 352 194 352 194 341 159 c 0,17,18
 330 126 330 126 309 96 c 0,19,20
 289 68 289 68 259 45 c 0,21,22
 230 22 230 22 196 12 c 0,23,24
 160 0 160 0 59 0 c 1,25,-1
 59 699 l 1,26,-1
 122 699 l 1,0,1
129 63 m 2,27,28
 162 63 162 63 191 76 c 0,29,30
 222 89 222 89 243 110 c 0,31,32
 266 133 266 133 279 162 c 256,33,34
 292 191 292 191 292 227 c 0,35,36
 292 261 292 261 279 290 c 0,37,38
 265 321 265 321 244 342 c 0,39,40
 233 353 233 353 219.5 361.5 c 128,-1,41
 206 370 206 370 192 377 c 0,42,43
 163 390 163 390 129 390 c 2,44,-1
 122 390 l 1,45,-1
 122 63 l 1,46,-1
 129 63 l 2,27,28
126 442 m 2,47,48
 145 442 145 442 164 450 c 0,49,50
 182 458 182 458 195 471 c 0,51,52
 209 485 209 485 216 502 c 0,53,54
 223 517 223 517 223 539 c 0,55,56
 223 560 223 560 216 577 c 0,57,58
 208 595 208 595 195 608 c 0,59,60
 181 622 181 622 164 629 c 256,61,62
 147 636 147 636 126 636 c 2,63,-1
 122 636 l 1,64,-1
 122 442 l 1,65,-1
 126 442 l 2,47,48
EndSplineSet
Validated: 1
EndChar

StartChar: C
Encoding: 67 67 6
Width: 405
GlyphClass: 1
Flags: W
LayerCount: 2
Fore
SplineSet
396 641 m 1,0,1
 395 642 395 642 376 642 c 0,2,3
 318 642 318 642 264 619 c 0,4,5
 211 597 211 597 170 556 c 256,6,7
 129 515 129 515 107 463 c 0,8,9
 83 409 83 409 83 349 c 0,10,11
 83 291 83 291 106 237 c 256,12,13
 129 183 129 183 168 144 c 0,14,15
 208 103 208 103 261 81 c 0,16,17
 313 57 313 57 376 57 c 2,18,-1
 396 57 l 1,19,-1
 396 -4 l 2,20,21
 395 -5 395 -5 376 -5 c 0,22,23
 303 -5 303 -5 240 23 c 0,24,25
 208 37 208 37 179.5 56 c 128,-1,26
 151 75 151 75 127 100 c 0,27,28
 102 124 102 124 83 152.5 c 128,-1,29
 64 181 64 181 50 213 c 0,30,31
 22 276 22 276 22 349 c 0,32,33
 22 423 22 423 50 486 c 0,34,35
 76 549 76 549 125 599 c 0,36,37
 172 646 172 646 238 675 c 0,38,39
 301 703 301 703 376 703 c 0,40,41
 395 703 395 703 396 702 c 2,42,-1
 396 641 l 1,0,1
EndSplineSet
Validated: 1
EndChar

StartChar: Cacute
Encoding: 262 262 7
Width: 405
GlyphClass: 1
Flags: W
LayerCount: 2
Fore
SplineSet
396 641 m 1,0,1
 395 642 395 642 376 642 c 0,2,3
 318 642 318 642 264 619 c 0,4,5
 211 597 211 597 170 556 c 256,6,7
 129 515 129 515 107 463 c 0,8,9
 83 409 83 409 83 349 c 0,10,11
 83 291 83 291 106 237 c 256,12,13
 129 183 129 183 168 144 c 0,14,15
 208 103 208 103 261 81 c 0,16,17
 313 57 313 57 376 57 c 2,18,-1
 396 57 l 1,19,-1
 396 -4 l 2,20,21
 395 -5 395 -5 376 -5 c 0,22,23
 303 -5 303 -5 240 23 c 0,24,25
 208 37 208 37 179.5 56 c 128,-1,26
 151 75 151 75 127 100 c 0,27,28
 102 124 102 124 83 152.5 c 128,-1,29
 64 181 64 181 50 213 c 0,30,31
 22 276 22 276 22 349 c 0,32,33
 22 423 22 423 50 486 c 0,34,35
 76 549 76 549 125 599 c 0,36,37
 172 646 172 646 238 675 c 0,38,39
 301 703 301 703 376 703 c 0,40,41
 395 703 395 703 396 702 c 2,42,-1
 396 641 l 1,0,1
284 824 m 1,43,-1
 346 824 l 1,44,-1
 275 734 l 1,45,-1
 241 734 l 1,46,-1
 284 824 l 1,43,-1
EndSplineSet
Validated: 1
EndChar

StartChar: Ccaron
Encoding: 268 268 8
Width: 405
GlyphClass: 1
Flags: W
LayerCount: 2
Fore
SplineSet
396 641 m 1,0,1
 395 642 395 642 376 642 c 0,2,3
 318 642 318 642 264 619 c 0,4,5
 211 597 211 597 170 556 c 256,6,7
 129 515 129 515 107 463 c 0,8,9
 83 409 83 409 83 349 c 0,10,11
 83 291 83 291 106 237 c 256,12,13
 129 183 129 183 168 144 c 0,14,15
 208 103 208 103 261 81 c 0,16,17
 313 57 313 57 376 57 c 2,18,-1
 396 57 l 1,19,-1
 396 -4 l 2,20,21
 395 -5 395 -5 376 -5 c 0,22,23
 303 -5 303 -5 240 23 c 0,24,25
 208 37 208 37 179.5 56 c 128,-1,26
 151 75 151 75 127 100 c 0,27,28
 102 124 102 124 83 152.5 c 128,-1,29
 64 181 64 181 50 213 c 0,30,31
 22 276 22 276 22 349 c 0,32,33
 22 423 22 423 50 486 c 0,34,35
 76 549 76 549 125 599 c 0,36,37
 172 646 172 646 238 675 c 0,38,39
 301 703 301 703 376 703 c 0,40,41
 395 703 395 703 396 702 c 2,42,-1
 396 641 l 1,0,1
339 725 m 1,43,-1
 292 725 l 1,44,-1
 233 825 l 1,45,-1
 281 825 l 1,46,-1
 315 775 l 1,47,-1
 349 825 l 1,48,-1
 398 825 l 1,49,-1
 339 725 l 1,43,-1
EndSplineSet
Validated: 1
EndChar

StartChar: Ccedilla
Encoding: 199 199 9
Width: 406
GlyphClass: 1
Flags: W
LayerCount: 2
Fore
SplineSet
307 0 m 1,0,1
 245 13 245 13 193 45 c 0,2,3
 139 78 139 78 102 123 c 0,4,5
 63 171 63 171 43 226 c 0,6,7
 22 283 22 283 22 347 c 0,8,9
 22 421 22 421 50 484 c 0,10,11
 78 548 78 548 126 597 c 0,12,13
 173 644 173 644 239 673 c 0,14,15
 302 701 302 701 376 701 c 0,16,17
 396 701 396 701 397 700 c 2,18,-1
 397 639 l 1,19,20
 396 640 396 640 376 640 c 0,21,22
 318 640 318 640 264 617 c 0,23,24
 211 594 211 594 171 554 c 0,25,26
 130 513 130 513 108 461 c 0,27,28
 84 408 84 408 84 347 c 0,29,30
 84 288 84 288 107 234 c 0,31,32
 129 181 129 181 170 141 c 0,33,34
 209 101 209 101 262 78 c 0,35,36
 316 55 316 55 376 55 c 2,37,-1
 397 55 l 1,38,-1
 397 -6 l 2,39,40
 396 -7 396 -7 376 -7 c 0,41,42
 347 -7 347 -7 346 -6 c 1,43,-1
 346 -16 l 1,44,45
 398 -22 398 -22 398 -67 c 0,46,47
 398 -133 398 -133 309 -133 c 2,48,-1
 287 -133 l 2,49,50
 274 -133 274 -133 273 -132 c 2,51,-1
 273 -95 l 1,52,-1
 312 -98 l 2,53,54
 359 -98 359 -98 359 -67 c 0,55,56
 359 -39 359 -39 307 -39 c 1,57,-1
 307 0 l 1,0,1
EndSplineSet
Validated: 1
EndChar

StartChar: D.001
Encoding: 68 68 10
Width: 455
GlyphClass: 1
Flags: W
LayerCount: 2
Fore
SplineSet
59 699 m 1,0,-1
 111 699 l 2,1,2
 214 699 214 699 316 606 c 0,3,4
 433 498 433 498 433 350 c 0,5,6
 433 297 433 297 418 248 c 0,7,8
 410 223 410 223 399 200 c 128,-1,9
 388 177 388 177 374 156 c 0,10,11
 345 112 345 112 306 80 c 0,12,13
 286 63 286 63 264 50 c 128,-1,14
 242 37 242 37 217 27 c 0,15,16
 152 0 152 0 111 0 c 2,17,-1
 59 0 l 1,18,-1
 59 699 l 1,0,-1
122 63 m 1,19,20
 174 70 174 70 221 96 c 0,21,22
 266 121 266 121 300 160 c 0,23,24
 333 197 333 197 353 248 c 0,25,26
 372 295 372 295 372 350 c 0,27,28
 372 404 372 404 353 452 c 0,29,30
 333 500 333 500 299 539 c 0,31,32
 282 558 282 558 262.5 574 c 128,-1,33
 243 590 243 590 220 603 c 0,34,35
 173 629 173 629 122 636 c 1,36,-1
 122 63 l 1,19,20
EndSplineSet
Validated: 1
EndChar

StartChar: Dcaron
Encoding: 270 270 11
Width: 455
GlyphClass: 1
Flags: W
LayerCount: 2
Fore
SplineSet
59 699 m 1,0,-1
 111 699 l 2,1,2
 214 699 214 699 316 606 c 0,3,4
 433 498 433 498 433 350 c 0,5,6
 433 297 433 297 418 248 c 0,7,8
 410 223 410 223 399 200 c 128,-1,9
 388 177 388 177 374 156 c 0,10,11
 345 112 345 112 306 80 c 0,12,13
 286 63 286 63 264 50 c 128,-1,14
 242 37 242 37 217 27 c 0,15,16
 152 0 152 0 111 0 c 2,17,-1
 59 0 l 1,18,-1
 59 699 l 1,0,-1
122 63 m 1,19,20
 174 70 174 70 221 96 c 0,21,22
 266 121 266 121 300 160 c 0,23,24
 333 197 333 197 353 248 c 0,25,26
 372 295 372 295 372 350 c 0,27,28
 372 404 372 404 353 452 c 0,29,30
 333 500 333 500 299 539 c 0,31,32
 282 558 282 558 262.5 574 c 128,-1,33
 243 590 243 590 220 603 c 0,34,35
 173 629 173 629 122 636 c 1,36,-1
 122 63 l 1,19,20
217 725 m 1,37,-1
 170 725 l 1,38,-1
 111 825 l 1,39,-1
 159 825 l 1,40,-1
 193 775 l 1,41,-1
 227 825 l 1,42,-1
 276 825 l 1,43,-1
 217 725 l 1,37,-1
EndSplineSet
Validated: 1
EndChar

StartChar: Dcroat.001
Encoding: 272 272 12
Width: 456
GlyphClass: 1
Flags: W
LayerCount: 2
Fore
SplineSet
190 402 m 1,0,-1
 190 349 l 1,1,-1
 122 349 l 1,2,-1
 122 63 l 1,3,4
 149 67 149 67 174 75.5 c 128,-1,5
 199 84 199 84 222 97 c 0,6,7
 267 122 267 122 301 161 c 0,8,9
 333 197 333 197 353 248 c 0,10,11
 372 295 372 295 372 350 c 0,12,13
 372 403 372 403 353 451 c 0,14,15
 333 501 333 501 300 538 c 0,16,17
 283 557 283 557 263.5 573 c 128,-1,18
 244 589 244 589 221 602 c 256,19,20
 198 615 198 615 173 623.5 c 128,-1,21
 148 632 148 632 122 636 c 1,22,-1
 122 402 l 1,23,-1
 190 402 l 1,0,-1
59 402 m 1,24,-1
 59 699 l 1,25,-1
 79 699 l 2,26,27
 151 699 151 699 216 672 c 0,28,29
 279 644 279 644 329 597 c 0,30,31
 376 552 376 552 405 487 c 0,32,33
 433 424 433 424 433 350 c 0,34,35
 433 277 433 277 405 214 c 0,36,37
 376 149 376 149 329 103 c 0,38,39
 281 55 281 55 217 28 c 0,40,41
 154 0 154 0 79 0 c 2,42,-1
 59 0 l 1,43,-1
 59 348 l 1,44,-1
 10 348 l 1,45,-1
 10 402 l 1,46,-1
 59 402 l 1,24,-1
EndSplineSet
Validated: 1
EndChar

StartChar: E.001
Encoding: 69 69 13
Width: 376
GlyphClass: 1
Flags: W
LayerCount: 2
Fore
SplineSet
59 699 m 1,0,-1
 362 699 l 1,1,-1
 362 636 l 1,2,-1
 123 636 l 1,3,-1
 123 505 l 1,4,-1
 306 505 l 1,5,-1
 306 442 l 1,6,-1
 123 442 l 1,7,-1
 123 63 l 1,8,-1
 362 63 l 1,9,-1
 362 0 l 1,10,-1
 59 0 l 1,11,-1
 59 699 l 1,0,-1
EndSplineSet
Validated: 1
EndChar

StartChar: Eacute.001
Encoding: 201 201 14
Width: 376
GlyphClass: 1
Flags: W
LayerCount: 2
Fore
SplineSet
59 699 m 1,0,-1
 362 699 l 1,1,-1
 362 636 l 1,2,-1
 123 636 l 1,3,-1
 123 505 l 1,4,-1
 306 505 l 1,5,-1
 306 442 l 1,6,-1
 123 442 l 1,7,-1
 123 63 l 1,8,-1
 362 63 l 1,9,-1
 362 0 l 1,10,-1
 59 0 l 1,11,-1
 59 699 l 1,0,-1
223 824 m 1,12,-1
 285 824 l 1,13,-1
 214 734 l 1,14,-1
 180 734 l 1,15,-1
 223 824 l 1,12,-1
EndSplineSet
Validated: 1
EndChar

StartChar: Ecaron
Encoding: 282 282 15
Width: 376
GlyphClass: 1
Flags: W
LayerCount: 2
Fore
SplineSet
59 699 m 1,0,-1
 362 699 l 1,1,-1
 362 636 l 1,2,-1
 123 636 l 1,3,-1
 123 505 l 1,4,-1
 306 505 l 1,5,-1
 306 442 l 1,6,-1
 123 442 l 1,7,-1
 123 63 l 1,8,-1
 362 63 l 1,9,-1
 362 0 l 1,10,-1
 59 0 l 1,11,-1
 59 699 l 1,0,-1
236 725 m 1,12,-1
 189 725 l 1,13,-1
 130 825 l 1,14,-1
 178 825 l 1,15,-1
 212 775 l 1,16,-1
 246 825 l 1,17,-1
 295 825 l 1,18,-1
 236 725 l 1,12,-1
EndSplineSet
Validated: 1
EndChar

StartChar: Edieresis.001
Encoding: 203 203 16
Width: 376
GlyphClass: 1
Flags: W
LayerCount: 2
Fore
SplineSet
59 699 m 1,0,-1
 362 699 l 1,1,-1
 362 636 l 1,2,-1
 123 636 l 1,3,-1
 123 505 l 1,4,-1
 306 505 l 1,5,-1
 306 442 l 1,6,-1
 123 442 l 1,7,-1
 123 63 l 1,8,-1
 362 63 l 1,9,-1
 362 0 l 1,10,-1
 59 0 l 1,11,-1
 59 699 l 1,0,-1
244 754 m 1,12,-1
 244 827 l 1,13,-1
 308 827 l 1,14,-1
 308 754 l 1,15,-1
 244 754 l 1,12,-1
118 754 m 1,16,-1
 118 827 l 1,17,-1
 181 827 l 1,18,-1
 181 754 l 1,19,-1
 118 754 l 1,16,-1
EndSplineSet
Validated: 1
EndChar

StartChar: Eogonek.001
Encoding: 280 280 17
Width: 376
GlyphClass: 1
Flags: W
LayerCount: 2
Fore
SplineSet
59 699 m 1,0,-1
 362 699 l 1,1,-1
 362 636 l 1,2,-1
 123 636 l 1,3,-1
 123 505 l 1,4,-1
 306 505 l 1,5,-1
 306 442 l 1,6,-1
 123 442 l 1,7,-1
 123 63 l 1,8,-1
 362 63 l 1,9,-1
 362 0 l 1,10,-1
 59 0 l 1,11,-1
 59 699 l 1,0,-1
362 0 m 1,12,13
 305 -45 305 -45 305 -80 c 0,14,15
 305 -104 305 -104 335 -104 c 2,16,-1
 369 -104 l 1,17,-1
 369 -159 l 1,18,-1
 335 -159 l 2,19,20
 252 -159 252 -159 252 -96 c 0,21,22
 252 -51 252 -51 319 0 c 5,23,-1
 362 0 l 1,12,13
EndSplineSet
Validated: 5
EndChar

StartChar: F.001
Encoding: 70 70 18
Width: 377
GlyphClass: 1
Flags: W
LayerCount: 2
Fore
SplineSet
362 636 m 1,0,-1
 122 636 l 1,1,-1
 122 505 l 1,2,-1
 306 505 l 1,3,-1
 306 442 l 1,4,-1
 122 442 l 1,5,-1
 122 0 l 1,6,-1
 59 0 l 1,7,-1
 59 699 l 1,8,-1
 362 699 l 1,9,-1
 362 636 l 1,0,-1
EndSplineSet
Validated: 1
EndChar

StartChar: G.001
Encoding: 71 71 19
Width: 434
GlyphClass: 1
Flags: W
LayerCount: 2
Fore
SplineSet
377 645 m 2,0,1
 318 645 318 645 264 622 c 0,2,3
 210 598 210 598 171 559 c 0,4,5
 130 518 130 518 108 466 c 0,6,7
 84 413 84 413 84 353 c 0,8,9
 84 298 84 298 103 250 c 0,10,11
 121 201 121 201 154 162 c 0,12,13
 188 122 188 122 233 97 c 0,14,15
 280 70 280 70 332 63 c 1,16,-1
 332 369 l 1,17,-1
 398 369 l 1,18,-1
 397 -1 l 2,19,20
 396 -2 396 -2 377 -2 c 0,21,22
 304 -2 304 -2 241 26 c 0,23,24
 209 40 209 40 180.5 59 c 128,-1,25
 152 78 152 78 128 103 c 0,26,27
 81 150 81 150 52 216 c 256,28,29
 23 282 23 282 23 353 c 0,30,31
 23 427 23 427 51 490 c 0,32,33
 77 553 77 553 126 603 c 0,34,35
 173 650 173 650 239 679 c 0,36,37
 302 707 302 707 377 707 c 0,38,39
 396 707 396 707 397 706 c 2,40,-1
 397 645 l 1,41,-1
 377 645 l 2,0,1
EndSplineSet
Validated: 1
EndChar

StartChar: H.001
Encoding: 72 72 20
Width: 408
GlyphClass: 1
Flags: W
LayerCount: 2
Fore
SplineSet
286 699 m 1,0,-1
 349 699 l 1,1,-1
 349 0 l 1,2,-1
 286 0 l 1,3,-1
 286 442 l 1,4,-1
 122 442 l 1,5,-1
 122 0 l 1,6,-1
 59 0 l 1,7,-1
 59 699 l 1,8,-1
 122 699 l 1,9,-1
 122 505 l 1,10,-1
 286 505 l 1,11,-1
 286 699 l 1,0,-1
EndSplineSet
Validated: 1
EndChar

StartChar: I
Encoding: 73 73 21
Width: 181
GlyphClass: 1
Flags: W
LayerCount: 2
Fore
SplineSet
122 699 m 1,0,-1
 122 0 l 1,1,-1
 59 0 l 1,2,-1
 59 699 l 1,3,-1
 122 699 l 1,0,-1
EndSplineSet
Validated: 1
EndChar

StartChar: Iacute
Encoding: 205 205 22
Width: 181
GlyphClass: 1
Flags: W
LayerCount: 2
Fore
SplineSet
122 699 m 1,0,-1
 122 0 l 1,1,-1
 59 0 l 1,2,-1
 59 699 l 1,3,-1
 122 699 l 1,0,-1
101 824 m 1,4,-1
 163 824 l 1,5,-1
 92 734 l 1,6,-1
 58 734 l 1,7,-1
 101 824 l 1,4,-1
EndSplineSet
Validated: 1
EndChar

StartChar: Icircumflex
Encoding: 206 206 23
Width: 181
GlyphClass: 1
Flags: W
LayerCount: 2
Fore
SplineSet
122 699 m 1,0,-1
 122 0 l 1,1,-1
 59 0 l 1,2,-1
 59 699 l 1,3,-1
 122 699 l 1,0,-1
173 725 m 1,4,-1
 124 725 l 1,5,-1
 90 775 l 1,6,-1
 56 725 l 1,7,-1
 8 725 l 1,8,-1
 67 825 l 1,9,-1
 114 825 l 1,10,-1
 173 725 l 1,4,-1
EndSplineSet
Validated: 1
EndChar

StartChar: J.001
Encoding: 74 74 24
Width: 427
GlyphClass: 1
Flags: W
LayerCount: 2
Fore
SplineSet
66 173 m 1,0,1
 69 121 69 121 103 90 c 0,2,3
 137 57 137 57 188 57 c 0,4,5
 216 57 216 57 237 67 c 0,6,7
 259 76 259 76 276 93 c 0,8,9
 291 108 291 108 302 131 c 0,10,11
 311 153 311 153 311 179 c 2,12,-1
 311 699 l 1,13,-1
 372 699 l 1,14,-1
 372 179 l 2,15,16
 372 143 372 143 358 109 c 0,17,18
 343 76 343 76 318 51 c 0,19,20
 292 25 292 25 259 10 c 0,21,22
 224 -5 224 -5 188 -5 c 0,23,24
 156 -5 156 -5 126 7 c 0,25,26
 97 17 97 17 72 39 c 0,27,28
 46 58 46 58 30 87 c 0,29,30
 13 117 13 117 7 149 c 1,31,-1
 66 173 l 1,0,1
EndSplineSet
Validated: 1
EndChar

StartChar: K.001
Encoding: 75 75 25
Width: 432
GlyphClass: 1
Flags: W
LayerCount: 2
Fore
SplineSet
59 0 m 1,0,-1
 59 699 l 1,1,-1
 122 699 l 1,2,-1
 122 438 l 1,3,-1
 341 699 l 1,4,-1
 423 699 l 1,5,-1
 146 369 l 1,6,-1
 456 0 l 1,7,-1
 374 0 l 1,8,-1
 122 300 l 1,9,-1
 122 0 l 1,10,-1
 59 0 l 1,0,-1
EndSplineSet
Validated: 1
EndChar

StartChar: L
Encoding: 76 76 26
Width: 374
GlyphClass: 1
Flags: W
LayerCount: 2
Fore
SplineSet
362 0 m 1,0,-1
 59 0 l 1,1,-1
 59 699 l 1,2,-1
 123 699 l 1,3,-1
 123 63 l 1,4,-1
 362 63 l 1,5,-1
 362 0 l 1,0,-1
EndSplineSet
Validated: 1
EndChar

StartChar: Lacute
Encoding: 313 313 27
Width: 374
GlyphClass: 1
Flags: W
LayerCount: 2
Fore
SplineSet
362 0 m 1,0,-1
 59 0 l 1,1,-1
 59 699 l 1,2,-1
 123 699 l 1,3,-1
 123 63 l 1,4,-1
 362 63 l 1,5,-1
 362 0 l 1,0,-1
111 824 m 1,6,-1
 173 824 l 1,7,-1
 102 734 l 1,8,-1
 68 734 l 1,9,-1
 111 824 l 1,6,-1
EndSplineSet
Validated: 1
EndChar

StartChar: Lcaron.001
Encoding: 317 317 28
Width: 374
GlyphClass: 1
Flags: W
LayerCount: 2
Fore
SplineSet
362 0 m 1,0,-1
 59 0 l 1,1,-1
 59 699 l 1,2,-1
 123 699 l 1,3,-1
 123 63 l 1,4,-1
 362 63 l 1,5,-1
 362 0 l 1,0,-1
221 644 m 2,6,7
 221 562 221 562 163 562 c 1,8,-1
 163 589 l 1,9,10
 192 589 192 589 192 644 c 1,11,-1
 163 644 l 1,12,-1
 163 701 l 1,13,-1
 221 701 l 1,14,-1
 221 644 l 2,6,7
EndSplineSet
Validated: 1
EndChar

StartChar: Lslash.001
Encoding: 321 321 29
Width: 377
GlyphClass: 1
Flags: W
LayerCount: 2
Fore
SplineSet
126 369 m 1,0,-1
 126 63 l 1,1,-1
 365 63 l 1,2,-1
 365 0 l 1,3,-1
 62 0 l 1,4,-1
 62 308 l 1,5,-1
 23 271 l 1,6,-1
 -7 303 l 1,7,-1
 62 369 l 1,8,-1
 62 699 l 1,9,-1
 126 699 l 1,10,-1
 126 430 l 1,11,-1
 165 466 l 1,12,-1
 195 435 l 1,13,-1
 126 369 l 1,0,-1
EndSplineSet
Validated: 1
EndChar

StartChar: M
Encoding: 77 77 30
Width: 646
GlyphClass: 1
Flags: W
LayerCount: 2
Fore
SplineSet
206 699 m 1,0,-1
 323 227 l 1,1,-1
 441 699 l 1,2,-1
 466 699 l 1,3,-1
 640 0 l 1,4,-1
 575 0 l 1,5,-1
 453 489 l 1,6,-1
 332 0 l 1,7,-1
 315 0 l 1,8,-1
 193 489 l 1,9,-1
 71 0 l 1,10,-1
 6 0 l 1,11,-1
 180 699 l 1,12,-1
 206 699 l 1,0,-1
EndSplineSet
Validated: 1
EndChar

StartChar: N.001
Encoding: 78 78 31
Width: 408
GlyphClass: 1
Flags: W
LayerCount: 2
Fore
SplineSet
84 699 m 1,0,-1
 287 155 l 1,1,-1
 287 699 l 1,2,-1
 349 699 l 1,3,-1
 349 0 l 1,4,-1
 277 0 l 1,5,-1
 122 415 l 1,6,-1
 122 0 l 1,7,-1
 59 0 l 1,8,-1
 59 699 l 1,9,-1
 84 699 l 1,0,-1
EndSplineSet
Validated: 1
EndChar

StartChar: Nacute.001
Encoding: 323 323 32
Width: 408
GlyphClass: 1
Flags: W
LayerCount: 2
Fore
SplineSet
84 699 m 1,0,-1
 287 155 l 1,1,-1
 287 699 l 1,2,-1
 349 699 l 1,3,-1
 349 0 l 1,4,-1
 277 0 l 1,5,-1
 122 415 l 1,6,-1
 122 0 l 1,7,-1
 59 0 l 1,8,-1
 59 699 l 1,9,-1
 84 699 l 1,0,-1
215 824 m 1,10,-1
 277 824 l 1,11,-1
 206 734 l 1,12,-1
 172 734 l 1,13,-1
 215 824 l 1,10,-1
EndSplineSet
Validated: 1
EndChar

StartChar: Ncaron
Encoding: 327 327 33
Width: 408
GlyphClass: 1
Flags: W
LayerCount: 2
Fore
SplineSet
84 699 m 1,0,-1
 287 155 l 1,1,-1
 287 699 l 1,2,-1
 349 699 l 1,3,-1
 349 0 l 1,4,-1
 277 0 l 1,5,-1
 122 415 l 1,6,-1
 122 0 l 1,7,-1
 59 0 l 1,8,-1
 59 699 l 1,9,-1
 84 699 l 1,0,-1
228 725 m 1,10,-1
 181 725 l 1,11,-1
 122 825 l 1,12,-1
 170 825 l 1,13,-1
 204 775 l 1,14,-1
 238 825 l 1,15,-1
 287 825 l 1,16,-1
 228 725 l 1,10,-1
EndSplineSet
Validated: 1
EndChar

StartChar: O.001
Encoding: 79 79 34
Width: 752
GlyphClass: 1
Flags: W
LayerCount: 2
Fore
SplineSet
730 349 m 256,0,1
 730 275 730 275 702 212 c 0,2,3
 673 146 673 146 626 99 c 0,4,5
 578 51 578 51 514 23 c 0,6,7
 451 -5 451 -5 376 -5 c 0,8,9
 303 -5 303 -5 240 23 c 0,10,11
 208 37 208 37 179.5 56 c 128,-1,12
 151 75 151 75 127 100 c 0,13,14
 102 124 102 124 83 152.5 c 128,-1,15
 64 181 64 181 50 213 c 0,16,17
 22 276 22 276 22 349 c 0,18,19
 22 423 22 423 50 486 c 0,20,21
 76 549 76 549 125 599 c 0,22,23
 172 646 172 646 238 675 c 0,24,25
 301 703 301 703 376 703 c 0,26,27
 450 703 450 703 513 675 c 0,28,29
 577 647 577 647 626 599 c 0,30,31
 674 550 674 550 702 486 c 0,32,33
 730 423 730 423 730 349 c 256,0,1
133 511 m 0,34,35
 83 437 83 437 83 349 c 0,36,37
 83 291 83 291 106 237 c 256,38,39
 129 183 129 183 168 144 c 0,40,41
 208 103 208 103 261 81 c 0,42,43
 313 57 313 57 376 57 c 0,44,45
 435 57 435 57 488 81 c 0,46,47
 540 103 540 103 581 144 c 0,48,49
 620 182 620 182 645 236 c 0,50,51
 668 290 668 290 668 349 c 0,52,53
 668 407 668 407 645 462 c 0,54,55
 621 514 621 514 582 555 c 0,56,57
 542 595 542 595 489 619 c 0,58,59
 435 642 435 642 376 642 c 0,60,61
 304 642 304 642 240 608 c 0,62,63
 174 573 174 573 133 511 c 0,34,35
EndSplineSet
Validated: 1
EndChar

StartChar: Oacute
Encoding: 211 211 35
Width: 752
GlyphClass: 1
Flags: W
LayerCount: 2
Fore
SplineSet
730 349 m 256,0,1
 730 275 730 275 702 212 c 0,2,3
 673 146 673 146 626 99 c 0,4,5
 578 51 578 51 514 23 c 0,6,7
 451 -5 451 -5 376 -5 c 0,8,9
 303 -5 303 -5 240 23 c 0,10,11
 208 37 208 37 179.5 56 c 128,-1,12
 151 75 151 75 127 100 c 0,13,14
 102 124 102 124 83 152.5 c 128,-1,15
 64 181 64 181 50 213 c 0,16,17
 22 276 22 276 22 349 c 0,18,19
 22 423 22 423 50 486 c 0,20,21
 76 549 76 549 125 599 c 0,22,23
 172 646 172 646 238 675 c 0,24,25
 301 703 301 703 376 703 c 0,26,27
 450 703 450 703 513 675 c 0,28,29
 577 647 577 647 626 599 c 0,30,31
 674 550 674 550 702 486 c 0,32,33
 730 423 730 423 730 349 c 256,0,1
133 511 m 0,34,35
 83 437 83 437 83 349 c 0,36,37
 83 291 83 291 106 237 c 256,38,39
 129 183 129 183 168 144 c 0,40,41
 208 103 208 103 261 81 c 0,42,43
 313 57 313 57 376 57 c 0,44,45
 435 57 435 57 488 81 c 0,46,47
 540 103 540 103 581 144 c 0,48,49
 620 182 620 182 645 236 c 0,50,51
 668 290 668 290 668 349 c 0,52,53
 668 407 668 407 645 462 c 0,54,55
 621 514 621 514 582 555 c 0,56,57
 542 595 542 595 489 619 c 0,58,59
 435 642 435 642 376 642 c 0,60,61
 304 642 304 642 240 608 c 0,62,63
 174 573 174 573 133 511 c 0,34,35
386 824 m 1,64,-1
 448 824 l 1,65,-1
 377 734 l 1,66,-1
 343 734 l 1,67,-1
 386 824 l 1,64,-1
EndSplineSet
Validated: 1
EndChar

StartChar: Ocircumflex.001
Encoding: 212 212 36
Width: 752
GlyphClass: 1
Flags: W
LayerCount: 2
Fore
SplineSet
730 349 m 256,0,1
 730 275 730 275 702 212 c 0,2,3
 673 146 673 146 626 99 c 0,4,5
 578 51 578 51 514 23 c 0,6,7
 451 -5 451 -5 376 -5 c 0,8,9
 303 -5 303 -5 240 23 c 0,10,11
 208 37 208 37 179.5 56 c 128,-1,12
 151 75 151 75 127 100 c 0,13,14
 102 124 102 124 83 152.5 c 128,-1,15
 64 181 64 181 50 213 c 0,16,17
 22 276 22 276 22 349 c 0,18,19
 22 423 22 423 50 486 c 0,20,21
 76 549 76 549 125 599 c 0,22,23
 172 646 172 646 238 675 c 0,24,25
 301 703 301 703 376 703 c 0,26,27
 450 703 450 703 513 675 c 0,28,29
 577 647 577 647 626 599 c 0,30,31
 674 550 674 550 702 486 c 0,32,33
 730 423 730 423 730 349 c 256,0,1
133 511 m 0,34,35
 83 437 83 437 83 349 c 0,36,37
 83 291 83 291 106 237 c 256,38,39
 129 183 129 183 168 144 c 0,40,41
 208 103 208 103 261 81 c 0,42,43
 313 57 313 57 376 57 c 0,44,45
 435 57 435 57 488 81 c 0,46,47
 540 103 540 103 581 144 c 0,48,49
 620 182 620 182 645 236 c 0,50,51
 668 290 668 290 668 349 c 0,52,53
 668 407 668 407 645 462 c 0,54,55
 621 514 621 514 582 555 c 0,56,57
 542 595 542 595 489 619 c 0,58,59
 435 642 435 642 376 642 c 0,60,61
 304 642 304 642 240 608 c 0,62,63
 174 573 174 573 133 511 c 0,34,35
458 725 m 1,64,-1
 409 725 l 1,65,-1
 375 775 l 1,66,-1
 341 725 l 1,67,-1
 293 725 l 1,68,-1
 352 825 l 1,69,-1
 399 825 l 1,70,-1
 458 725 l 1,64,-1
EndSplineSet
Validated: 1
EndChar

StartChar: Odieresis
Encoding: 214 214 37
Width: 752
GlyphClass: 1
Flags: W
LayerCount: 2
Fore
SplineSet
730 349 m 256,0,1
 730 275 730 275 702 212 c 0,2,3
 673 146 673 146 626 99 c 0,4,5
 578 51 578 51 514 23 c 0,6,7
 451 -5 451 -5 376 -5 c 0,8,9
 303 -5 303 -5 240 23 c 0,10,11
 208 37 208 37 179.5 56 c 128,-1,12
 151 75 151 75 127 100 c 0,13,14
 102 124 102 124 83 152.5 c 128,-1,15
 64 181 64 181 50 213 c 0,16,17
 22 276 22 276 22 349 c 0,18,19
 22 423 22 423 50 486 c 0,20,21
 76 549 76 549 125 599 c 0,22,23
 172 646 172 646 238 675 c 0,24,25
 301 703 301 703 376 703 c 0,26,27
 450 703 450 703 513 675 c 0,28,29
 577 647 577 647 626 599 c 0,30,31
 674 550 674 550 702 486 c 0,32,33
 730 423 730 423 730 349 c 256,0,1
133 511 m 0,34,35
 83 437 83 437 83 349 c 0,36,37
 83 291 83 291 106 237 c 256,38,39
 129 183 129 183 168 144 c 0,40,41
 208 103 208 103 261 81 c 0,42,43
 313 57 313 57 376 57 c 0,44,45
 435 57 435 57 488 81 c 0,46,47
 540 103 540 103 581 144 c 0,48,49
 620 182 620 182 645 236 c 0,50,51
 668 290 668 290 668 349 c 0,52,53
 668 407 668 407 645 462 c 0,54,55
 621 514 621 514 582 555 c 0,56,57
 542 595 542 595 489 619 c 0,58,59
 435 642 435 642 376 642 c 0,60,61
 304 642 304 642 240 608 c 0,62,63
 174 573 174 573 133 511 c 0,34,35
407 754 m 1,64,-1
 407 827 l 1,65,-1
 471 827 l 1,66,-1
 471 754 l 1,67,-1
 407 754 l 1,64,-1
281 754 m 1,68,-1
 281 827 l 1,69,-1
 344 827 l 1,70,-1
 344 754 l 1,71,-1
 281 754 l 1,68,-1
EndSplineSet
Validated: 1
EndChar

StartChar: Ohungarumlaut
Encoding: 336 336 38
Width: 752
GlyphClass: 1
Flags: W
LayerCount: 2
Fore
SplineSet
730 349 m 256,0,1
 730 275 730 275 702 212 c 0,2,3
 673 146 673 146 626 99 c 0,4,5
 578 51 578 51 514 23 c 0,6,7
 451 -5 451 -5 376 -5 c 0,8,9
 303 -5 303 -5 240 23 c 0,10,11
 208 37 208 37 179.5 56 c 128,-1,12
 151 75 151 75 127 100 c 0,13,14
 102 124 102 124 83 152.5 c 128,-1,15
 64 181 64 181 50 213 c 0,16,17
 22 276 22 276 22 349 c 0,18,19
 22 423 22 423 50 486 c 0,20,21
 76 549 76 549 125 599 c 0,22,23
 172 646 172 646 238 675 c 0,24,25
 301 703 301 703 376 703 c 0,26,27
 450 703 450 703 513 675 c 0,28,29
 577 647 577 647 626 599 c 0,30,31
 674 550 674 550 702 486 c 0,32,33
 730 423 730 423 730 349 c 256,0,1
133 511 m 0,34,35
 83 437 83 437 83 349 c 0,36,37
 83 291 83 291 106 237 c 256,38,39
 129 183 129 183 168 144 c 0,40,41
 208 103 208 103 261 81 c 0,42,43
 313 57 313 57 376 57 c 0,44,45
 435 57 435 57 488 81 c 0,46,47
 540 103 540 103 581 144 c 0,48,49
 620 182 620 182 645 236 c 0,50,51
 668 290 668 290 668 349 c 0,52,53
 668 407 668 407 645 462 c 0,54,55
 621 514 621 514 582 555 c 0,56,57
 542 595 542 595 489 619 c 0,58,59
 435 642 435 642 376 642 c 0,60,61
 304 642 304 642 240 608 c 0,62,63
 174 573 174 573 133 511 c 0,34,35
386 733 m 1,64,-1
 442 826 l 1,65,-1
 501 826 l 1,66,-1
 420 733 l 1,67,-1
 386 733 l 1,64,-1
307 733 m 1,68,-1
 356 826 l 1,69,-1
 415 826 l 1,70,-1
 342 733 l 1,71,-1
 307 733 l 1,68,-1
EndSplineSet
Validated: 1
EndChar

StartChar: P.001
Encoding: 80 80 39
Width: 369
GlyphClass: 1
Flags: W
LayerCount: 2
Fore
SplineSet
122 291 m 1,0,1
 156 292 156 292 186 306 c 256,2,3
 216 320 216 320 239 344 c 0,4,5
 263 368 263 368 276 398 c 256,6,7
 289 428 289 428 289 464 c 256,8,9
 289 500 289 500 276 530 c 256,10,11
 263 560 263 560 239 584 c 256,12,13
 215 608 215 608 186 621 c 0,14,15
 170 628 170 628 154.5 632 c 128,-1,16
 139 636 139 636 122 637 c 1,17,-1
 122 291 l 1,0,1
122 0 m 1,18,-1
 59 0 l 1,19,-1
 59 699 l 1,20,-1
 122 699 l 2,21,22
 168 697 168 697 209 678 c 0,23,24
 251 658 251 658 282 627 c 0,25,26
 298 611 298 611 310 592.5 c 128,-1,27
 322 574 322 574 332 553 c 0,28,29
 350 511 350 511 350 464 c 256,30,31
 350 417 350 417 332 375 c 0,32,33
 312 330 312 330 282 300 c 0,34,35
 251 269 251 269 209 249 c 0,36,37
 189 239 189 239 167 234.5 c 128,-1,38
 145 230 145 230 122 229 c 1,39,-1
 122 0 l 1,18,-1
EndSplineSet
Validated: 1
EndChar

StartChar: Q.001
Encoding: 81 81 40
Width: 753
GlyphClass: 1
Flags: W
LayerCount: 2
Fore
SplineSet
731 351 m 0,0,1
 731 302 731 302 718 259 c 0,2,3
 705 215 705 215 682 173 c 0,4,5
 657 131 657 131 625 99 c 0,6,7
 608 82 608 82 590 68 c 128,-1,8
 572 54 572 54 552 43 c 1,9,10
 586 -24 586 -24 642 -30 c 1,11,-1
 642 -93 l 1,12,13
 607 -85 607 -85 588 -77 c 0,14,15
 566 -70 566 -70 551 -56 c 0,16,17
 534 -42 534 -42 524 -25 c 0,18,19
 513 -8 513 -8 500 19 c 1,20,21
 450 -3 450 -3 377 -3 c 0,22,23
 303 -3 303 -3 240 25 c 0,24,25
 174 54 174 54 127 101 c 256,26,27
 80 148 80 148 51 214 c 0,28,29
 23 277 23 277 23 351 c 256,30,31
 23 425 23 425 51 488 c 0,32,33
 79 552 79 552 127 601 c 0,34,35
 174 648 174 648 240 677 c 0,36,37
 303 705 303 705 377 705 c 256,38,39
 451 705 451 705 514 677 c 0,40,41
 578 649 578 649 627 601 c 0,42,43
 675 552 675 552 703 488 c 0,44,45
 731 425 731 425 731 351 c 0,0,1
487 154 m 1,46,47
 494 147 494 147 504 132 c 0,48,49
 513 119 513 119 524 98 c 1,50,51
 558 117 558 117 584 144 c 0,52,53
 610 170 610 170 630 205 c 0,54,55
 649 238 649 238 660 276 c 0,56,57
 670 312 670 312 670 351 c 0,58,59
 670 409 670 409 647 464 c 0,60,61
 624 516 624 516 584 557 c 0,62,63
 544 597 544 597 491 621 c 0,64,65
 436 644 436 644 377 644 c 0,66,67
 319 644 319 644 265 621 c 0,68,69
 212 598 212 598 172 558 c 0,70,71
 131 517 131 517 109 465 c 0,72,73
 85 412 85 412 85 351 c 0,74,75
 85 292 85 292 108 238 c 256,76,77
 131 184 131 184 169 146 c 0,78,79
 208 105 208 105 262 83 c 0,80,81
 314 59 314 59 377 59 c 0,82,83
 425 59 425 59 472 74 c 1,84,85
 461 95 461 95 449 108 c 0,86,87
 438 121 438 121 426 129 c 1,88,-1
 487 154 l 1,46,47
EndSplineSet
Validated: 1
EndChar

StartChar: R.001
Encoding: 82 82 41
Width: 379
GlyphClass: 1
Flags: W
LayerCount: 2
Fore
SplineSet
122 699 m 2,0,1
 169 697 169 697 211 678 c 0,2,3
 251 658 251 658 283 627 c 0,4,5
 313 597 313 597 332 553 c 0,6,7
 350 511 350 511 350 464 c 0,8,9
 350 310 350 310 202 246 c 1,10,11
 207 240 207 240 211.5 234 c 128,-1,12
 216 228 216 228 221 221 c 0,13,14
 231 206 231 206 238 192 c 2,15,-1
 267 133 l 1,16,17
 307 69 307 69 356 58 c 1,18,-1
 356 -5 l 1,19,20
 259 25 259 25 230 78 c 2,21,-1
 204 133 l 2,22,23
 199 144 199 144 194 153.5 c 128,-1,24
 189 163 189 163 184 171 c 256,25,26
 179 179 179 179 174 186 c 128,-1,27
 169 193 169 193 164 199 c 2,28,-1
 147 216 l 1,29,-1
 129 230 l 2,30,31
 123 230 123 230 122 229 c 2,32,-1
 122 0 l 1,33,-1
 59 0 l 1,34,-1
 59 699 l 1,35,-1
 122 699 l 2,0,1
122 291 m 1,36,37
 159 293 159 293 189 307 c 256,38,39
 219 321 219 321 242 345 c 0,40,41
 263 366 263 366 277 399 c 0,42,43
 289 430 289 430 289 464 c 0,44,45
 289 501 289 501 276 531 c 0,46,47
 262 562 262 562 240 585 c 0,48,49
 216 609 216 609 187 622 c 0,50,51
 155 636 155 636 122 637 c 1,52,-1
 122 291 l 1,36,37
EndSplineSet
Validated: 1
EndChar

StartChar: Racute
Encoding: 340 340 42
Width: 379
GlyphClass: 1
Flags: W
LayerCount: 2
Fore
SplineSet
122 699 m 2,0,1
 169 697 169 697 211 678 c 0,2,3
 251 658 251 658 283 627 c 0,4,5
 313 597 313 597 332 553 c 0,6,7
 350 511 350 511 350 464 c 0,8,9
 350 310 350 310 202 246 c 1,10,11
 207 240 207 240 211.5 234 c 128,-1,12
 216 228 216 228 221 221 c 0,13,14
 231 206 231 206 238 192 c 2,15,-1
 267 133 l 1,16,17
 307 69 307 69 356 58 c 1,18,-1
 356 -5 l 1,19,20
 259 25 259 25 230 78 c 2,21,-1
 204 133 l 2,22,23
 199 144 199 144 194 153.5 c 128,-1,24
 189 163 189 163 184 171 c 256,25,26
 179 179 179 179 174 186 c 128,-1,27
 169 193 169 193 164 199 c 2,28,-1
 147 216 l 1,29,-1
 129 230 l 2,30,31
 123 230 123 230 122 229 c 2,32,-1
 122 0 l 1,33,-1
 59 0 l 1,34,-1
 59 699 l 1,35,-1
 122 699 l 2,0,1
122 291 m 1,36,37
 159 293 159 293 189 307 c 256,38,39
 219 321 219 321 242 345 c 0,40,41
 263 366 263 366 277 399 c 0,42,43
 289 430 289 430 289 464 c 0,44,45
 289 501 289 501 276 531 c 0,46,47
 262 562 262 562 240 585 c 0,48,49
 216 609 216 609 187 622 c 0,50,51
 155 636 155 636 122 637 c 1,52,-1
 122 291 l 1,36,37
198 824 m 1,53,-1
 260 824 l 1,54,-1
 189 734 l 1,55,-1
 155 734 l 1,56,-1
 198 824 l 1,53,-1
EndSplineSet
Validated: 1
EndChar

StartChar: Rcaron
Encoding: 344 344 43
Width: 379
GlyphClass: 1
Flags: W
LayerCount: 2
Fore
SplineSet
122 699 m 2,0,1
 169 697 169 697 211 678 c 0,2,3
 251 658 251 658 283 627 c 0,4,5
 313 597 313 597 332 553 c 0,6,7
 350 511 350 511 350 464 c 0,8,9
 350 310 350 310 202 246 c 1,10,11
 207 240 207 240 211.5 234 c 128,-1,12
 216 228 216 228 221 221 c 0,13,14
 231 206 231 206 238 192 c 2,15,-1
 267 133 l 1,16,17
 307 69 307 69 356 58 c 1,18,-1
 356 -5 l 1,19,20
 259 25 259 25 230 78 c 2,21,-1
 204 133 l 2,22,23
 199 144 199 144 194 153.5 c 128,-1,24
 189 163 189 163 184 171 c 256,25,26
 179 179 179 179 174 186 c 128,-1,27
 169 193 169 193 164 199 c 2,28,-1
 147 216 l 1,29,-1
 129 230 l 2,30,31
 123 230 123 230 122 229 c 2,32,-1
 122 0 l 1,33,-1
 59 0 l 1,34,-1
 59 699 l 1,35,-1
 122 699 l 2,0,1
122 291 m 1,36,37
 159 293 159 293 189 307 c 256,38,39
 219 321 219 321 242 345 c 0,40,41
 263 366 263 366 277 399 c 0,42,43
 289 430 289 430 289 464 c 0,44,45
 289 501 289 501 276 531 c 0,46,47
 262 562 262 562 240 585 c 0,48,49
 216 609 216 609 187 622 c 0,50,51
 155 636 155 636 122 637 c 1,52,-1
 122 291 l 1,36,37
211 725 m 1,53,-1
 164 725 l 1,54,-1
 105 825 l 1,55,-1
 153 825 l 1,56,-1
 187 775 l 1,57,-1
 221 825 l 1,58,-1
 270 825 l 1,59,-1
 211 725 l 1,53,-1
EndSplineSet
Validated: 1
EndChar

StartChar: S.001
Encoding: 83 83 44
Width: 314
GlyphClass: 1
Flags: W
LayerCount: 2
Fore
SplineSet
11 113 m 1,0,1
 60 64 60 64 121 64 c 0,2,3
 143 64 143 64 167 72 c 0,4,5
 189 79 189 79 206 95 c 0,6,7
 214 102 214 102 220.5 110.5 c 128,-1,8
 227 119 227 119 232 130 c 0,9,10
 242 149 242 149 242 175 c 0,11,12
 240 221 240 221 184 301 c 2,13,-1
 132 374 l 2,14,15
 41 501 41 501 41 566 c 0,16,17
 41 595 41 595 53 621 c 0,18,19
 63 645 63 645 83 663 c 0,20,21
 100 680 100 680 125 691 c 0,22,23
 149 700 149 700 175 700 c 0,24,25
 236 700 236 700 276 648 c 1,26,27
 236 608 236 608 232 608 c 1,28,-1
 233 609 l 1,29,30
 198 638 198 638 168 638 c 0,31,32
 101 638 101 638 101 573 c 0,33,34
 101 538 101 538 154 458 c 2,35,-1
 206 381 l 2,36,37
 301 238 301 238 301 162 c 0,38,39
 301 126 301 126 289 96 c 256,40,41
 277 66 277 66 255 44 c 0,42,43
 232 21 232 21 201 9 c 0,44,45
 171 -4 171 -4 131 -4 c 0,46,47
 72 -4 72 -4 11 33 c 1,48,-1
 11 113 l 1,0,1
EndSplineSet
Validated: 1
EndChar

StartChar: Sacute.001
Encoding: 346 346 45
Width: 314
GlyphClass: 1
Flags: W
LayerCount: 2
Fore
SplineSet
11 113 m 1,0,1
 60 64 60 64 121 64 c 0,2,3
 143 64 143 64 167 72 c 0,4,5
 189 79 189 79 206 95 c 0,6,7
 214 102 214 102 220.5 110.5 c 128,-1,8
 227 119 227 119 232 130 c 0,9,10
 242 149 242 149 242 175 c 0,11,12
 240 221 240 221 184 301 c 2,13,-1
 132 374 l 2,14,15
 41 501 41 501 41 566 c 0,16,17
 41 595 41 595 53 621 c 0,18,19
 63 645 63 645 83 663 c 0,20,21
 100 680 100 680 125 691 c 0,22,23
 149 700 149 700 175 700 c 0,24,25
 236 700 236 700 276 648 c 1,26,27
 236 608 236 608 232 608 c 1,28,-1
 233 609 l 1,29,30
 198 638 198 638 168 638 c 0,31,32
 101 638 101 638 101 573 c 0,33,34
 101 538 101 538 154 458 c 2,35,-1
 206 381 l 2,36,37
 301 238 301 238 301 162 c 0,38,39
 301 126 301 126 289 96 c 256,40,41
 277 66 277 66 255 44 c 0,42,43
 232 21 232 21 201 9 c 0,44,45
 171 -4 171 -4 131 -4 c 0,46,47
 72 -4 72 -4 11 33 c 1,48,-1
 11 113 l 1,0,1
167 824 m 1,49,-1
 229 824 l 1,50,-1
 158 734 l 1,51,-1
 124 734 l 1,52,-1
 167 824 l 1,49,-1
EndSplineSet
Validated: 1
EndChar

StartChar: Scaron.001
Encoding: 352 352 46
Width: 314
GlyphClass: 1
Flags: W
LayerCount: 2
Fore
SplineSet
11 113 m 1,0,1
 60 64 60 64 121 64 c 0,2,3
 143 64 143 64 167 72 c 0,4,5
 189 79 189 79 206 95 c 0,6,7
 214 102 214 102 220.5 110.5 c 128,-1,8
 227 119 227 119 232 130 c 0,9,10
 242 149 242 149 242 175 c 0,11,12
 240 221 240 221 184 301 c 2,13,-1
 132 374 l 2,14,15
 41 501 41 501 41 566 c 0,16,17
 41 595 41 595 53 621 c 0,18,19
 63 645 63 645 83 663 c 0,20,21
 100 680 100 680 125 691 c 0,22,23
 149 700 149 700 175 700 c 0,24,25
 236 700 236 700 276 648 c 1,26,27
 236 608 236 608 232 608 c 1,28,-1
 233 609 l 1,29,30
 198 638 198 638 168 638 c 0,31,32
 101 638 101 638 101 573 c 0,33,34
 101 538 101 538 154 458 c 2,35,-1
 206 381 l 2,36,37
 301 238 301 238 301 162 c 0,38,39
 301 126 301 126 289 96 c 256,40,41
 277 66 277 66 255 44 c 0,42,43
 232 21 232 21 201 9 c 0,44,45
 171 -4 171 -4 131 -4 c 0,46,47
 72 -4 72 -4 11 33 c 1,48,-1
 11 113 l 1,0,1
180 725 m 1,49,-1
 133 725 l 1,50,-1
 74 825 l 1,51,-1
 122 825 l 1,52,-1
 156 775 l 1,53,-1
 190 825 l 1,54,-1
 239 825 l 1,55,-1
 180 725 l 1,49,-1
EndSplineSet
Validated: 1
EndChar

StartChar: Scedilla.001
Encoding: 350 350 47
Width: 314
GlyphClass: 1
Flags: W
LayerCount: 2
Fore
SplineSet
172 -7 m 1,0,1
 223 -15 223 -15 223 -63 c 0,2,3
 223 -134 223 -134 130 -134 c 1,4,-1
 89 -132 l 1,5,-1
 89 -86 l 1,6,-1
 140 -89 l 2,7,8
 174 -89 174 -89 174 -63 c 0,9,10
 174 -40 174 -40 123 -40 c 1,11,-1
 123 -4 l 1,12,13
 65 0 65 0 11 33 c 1,14,-1
 11 113 l 1,15,16
 60 64 60 64 121 64 c 0,17,18
 143 64 143 64 167 72 c 0,19,20
 189 79 189 79 206 95 c 0,21,22
 214 102 214 102 220.5 110.5 c 128,-1,23
 227 119 227 119 232 130 c 0,24,25
 242 149 242 149 242 175 c 0,26,27
 240 221 240 221 184 301 c 2,28,-1
 132 374 l 2,29,30
 41 501 41 501 41 566 c 0,31,32
 41 595 41 595 53 621 c 0,33,34
 63 645 63 645 83 663 c 0,35,36
 100 680 100 680 125 691 c 0,37,38
 149 700 149 700 175 700 c 0,39,40
 236 700 236 700 276 648 c 1,41,42
 236 608 236 608 232 608 c 1,43,-1
 233 609 l 1,44,45
 198 638 198 638 168 638 c 0,46,47
 101 638 101 638 101 573 c 0,48,49
 101 538 101 538 154 458 c 2,50,-1
 206 381 l 2,51,52
 301 238 301 238 301 162 c 0,53,54
 301 37 301 37 172 0 c 1,55,-1
 172 -7 l 1,0,1
EndSplineSet
Validated: 1
EndChar

StartChar: T.001
Encoding: 84 84 48
Width: 327
GlyphClass: 1
Flags: W
LayerCount: 2
Fore
SplineSet
132 0 m 1,0,-1
 132 636 l 1,1,-1
 12 636 l 1,2,-1
 12 699 l 1,3,-1
 315 699 l 1,4,-1
 315 636 l 1,5,-1
 195 636 l 1,6,-1
 195 0 l 1,7,-1
 132 0 l 1,0,-1
EndSplineSet
Validated: 1
EndChar

StartChar: Tcaron
Encoding: 356 356 49
Width: 327
GlyphClass: 1
Flags: W
LayerCount: 2
Fore
SplineSet
132 0 m 1,0,-1
 132 636 l 1,1,-1
 12 636 l 1,2,-1
 12 699 l 1,3,-1
 315 699 l 1,4,-1
 315 636 l 1,5,-1
 195 636 l 1,6,-1
 195 0 l 1,7,-1
 132 0 l 1,0,-1
187 725 m 1,8,-1
 140 725 l 1,9,-1
 81 825 l 1,10,-1
 129 825 l 1,11,-1
 163 775 l 1,12,-1
 197 825 l 1,13,-1
 246 825 l 1,14,-1
 187 725 l 1,8,-1
EndSplineSet
Validated: 1
EndChar

StartChar: Tcedilla.001
Encoding: 354 354 50
Width: 327
GlyphClass: 1
Flags: W
LayerCount: 2
Fore
SplineSet
132 0 m 1,0,-1
 132 636 l 1,1,-1
 12 636 l 1,2,-1
 12 699 l 1,3,-1
 315 699 l 1,4,-1
 315 636 l 1,5,-1
 195 636 l 1,6,-1
 195 0 l 1,7,-1
 132 0 l 1,0,-1
188 -7 m 1,8,9
 239 -15 239 -15 239 -63 c 0,10,11
 239 -134 239 -134 146 -134 c 1,12,-1
 105 -132 l 1,13,-1
 105 -86 l 1,14,-1
 156 -89 l 2,15,16
 158.266666667 -89.1333333333 158.266666667 -89.1333333333 160.382222222 -89.1333333333 c 0,17,18
 190 -89.1333333333 190 -89.1333333333 190 -63 c 0,19,20
 190 -40 190 -40 139 -40 c 1,21,-1
 139 0 l 1,22,-1
 189 0 l 1,23,-1
 188 -7 l 1,8,9
EndSplineSet
Validated: 524293
EndChar

StartChar: U.001
Encoding: 85 85 51
Width: 468
GlyphClass: 1
Flags: W
LayerCount: 2
Fore
SplineSet
413 699 m 1,0,-1
 413 179 l 2,1,2
 413 144 413 144 399 111 c 0,3,4
 384 78 384 78 360 54 c 0,5,6
 334 28 334 28 303 15 c 0,7,8
 270 0 270 0 234 0 c 0,9,10
 197 0 197 0 166 15 c 0,11,12
 134 28 134 28 109 54 c 0,13,14
 83 78 83 78 70 111 c 0,15,16
 55 142 55 142 55 179 c 2,17,-1
 55 699 l 1,18,-1
 117 699 l 1,19,-1
 117 179 l 2,20,21
 117 156 117 156 126 135 c 0,22,23
 133 115 133 115 150 98 c 0,24,25
 168 80 168 80 187 72 c 0,26,27
 207 62 207 62 234 62 c 0,28,29
 259 62 259 62 280 72 c 0,30,31
 301 81 301 81 317 97 c 0,32,33
 332 111 332 111 343 134 c 0,34,35
 352 155 352 155 352 179 c 2,36,-1
 352 699 l 1,37,-1
 413 699 l 1,0,-1
EndSplineSet
Validated: 1
EndChar

StartChar: Uacute
Encoding: 218 218 52
Width: 468
GlyphClass: 1
Flags: W
LayerCount: 2
Fore
SplineSet
413 699 m 1,0,-1
 413 179 l 2,1,2
 413 144 413 144 399 111 c 0,3,4
 384 78 384 78 360 54 c 0,5,6
 334 28 334 28 303 15 c 0,7,8
 270 0 270 0 234 0 c 0,9,10
 197 0 197 0 166 15 c 0,11,12
 134 28 134 28 109 54 c 0,13,14
 83 78 83 78 70 111 c 0,15,16
 55 142 55 142 55 179 c 2,17,-1
 55 699 l 1,18,-1
 117 699 l 1,19,-1
 117 179 l 2,20,21
 117 156 117 156 126 135 c 0,22,23
 133 115 133 115 150 98 c 0,24,25
 168 80 168 80 187 72 c 0,26,27
 207 62 207 62 234 62 c 0,28,29
 259 62 259 62 280 72 c 0,30,31
 301 81 301 81 317 97 c 0,32,33
 332 111 332 111 343 134 c 0,34,35
 352 155 352 155 352 179 c 2,36,-1
 352 699 l 1,37,-1
 413 699 l 1,0,-1
244 824 m 1,38,-1
 306 824 l 1,39,-1
 235 734 l 1,40,-1
 201 734 l 1,41,-1
 244 824 l 1,38,-1
EndSplineSet
Validated: 1
EndChar

StartChar: Udieresis.001
Encoding: 220 220 53
Width: 468
GlyphClass: 1
Flags: W
LayerCount: 2
Fore
SplineSet
413 699 m 1,0,-1
 413 179 l 2,1,2
 413 144 413 144 399 111 c 0,3,4
 384 78 384 78 360 54 c 0,5,6
 334 28 334 28 303 15 c 0,7,8
 270 0 270 0 234 0 c 0,9,10
 197 0 197 0 166 15 c 0,11,12
 134 28 134 28 109 54 c 0,13,14
 83 78 83 78 70 111 c 0,15,16
 55 142 55 142 55 179 c 2,17,-1
 55 699 l 1,18,-1
 117 699 l 1,19,-1
 117 179 l 2,20,21
 117 156 117 156 126 135 c 0,22,23
 133 115 133 115 150 98 c 0,24,25
 168 80 168 80 187 72 c 0,26,27
 207 62 207 62 234 62 c 0,28,29
 259 62 259 62 280 72 c 0,30,31
 301 81 301 81 317 97 c 0,32,33
 332 111 332 111 343 134 c 0,34,35
 352 155 352 155 352 179 c 2,36,-1
 352 699 l 1,37,-1
 413 699 l 1,0,-1
265 754 m 1,38,-1
 265 827 l 1,39,-1
 329 827 l 1,40,-1
 329 754 l 1,41,-1
 265 754 l 1,38,-1
139 754 m 1,42,-1
 139 827 l 1,43,-1
 202 827 l 1,44,-1
 202 754 l 1,45,-1
 139 754 l 1,42,-1
EndSplineSet
Validated: 1
EndChar

StartChar: Uhungarumlaut.001
Encoding: 368 368 54
Width: 468
GlyphClass: 1
Flags: W
LayerCount: 2
Fore
SplineSet
413 699 m 1,0,-1
 413 179 l 2,1,2
 413 144 413 144 399 111 c 0,3,4
 384 78 384 78 360 54 c 0,5,6
 334 28 334 28 303 15 c 0,7,8
 270 0 270 0 234 0 c 0,9,10
 197 0 197 0 166 15 c 0,11,12
 134 28 134 28 109 54 c 0,13,14
 83 78 83 78 70 111 c 0,15,16
 55 142 55 142 55 179 c 2,17,-1
 55 699 l 1,18,-1
 117 699 l 1,19,-1
 117 179 l 2,20,21
 117 156 117 156 126 135 c 0,22,23
 133 115 133 115 150 98 c 0,24,25
 168 80 168 80 187 72 c 0,26,27
 207 62 207 62 234 62 c 0,28,29
 259 62 259 62 280 72 c 0,30,31
 301 81 301 81 317 97 c 0,32,33
 332 111 332 111 343 134 c 0,34,35
 352 155 352 155 352 179 c 2,36,-1
 352 699 l 1,37,-1
 413 699 l 1,0,-1
244 733 m 1,38,-1
 300 826 l 1,39,-1
 359 826 l 1,40,-1
 278 733 l 1,41,-1
 244 733 l 1,38,-1
165 733 m 1,42,-1
 214 826 l 1,43,-1
 273 826 l 1,44,-1
 200 733 l 1,45,-1
 165 733 l 1,42,-1
EndSplineSet
Validated: 1
EndChar

StartChar: Uring
Encoding: 366 366 55
Width: 468
GlyphClass: 1
Flags: W
LayerCount: 2
Fore
SplineSet
413 699 m 1,0,-1
 413 179 l 2,1,2
 413 144 413 144 399 111 c 0,3,4
 384 78 384 78 360 54 c 0,5,6
 334 28 334 28 303 15 c 0,7,8
 270 0 270 0 234 0 c 0,9,10
 197 0 197 0 166 15 c 0,11,12
 134 28 134 28 109 54 c 0,13,14
 83 78 83 78 70 111 c 0,15,16
 55 142 55 142 55 179 c 2,17,-1
 55 699 l 1,18,-1
 117 699 l 1,19,-1
 117 179 l 2,20,21
 117 156 117 156 126 135 c 0,22,23
 133 115 133 115 150 98 c 0,24,25
 168 80 168 80 187 72 c 0,26,27
 207 62 207 62 234 62 c 0,28,29
 259 62 259 62 280 72 c 0,30,31
 301 81 301 81 317 97 c 0,32,33
 332 111 332 111 343 134 c 0,34,35
 352 155 352 155 352 179 c 2,36,-1
 352 699 l 1,37,-1
 413 699 l 1,0,-1
234 716 m 256,38,39
 205 716 205 716 185 736 c 256,40,41
 165 756 165 756 165 785 c 256,42,43
 165 814 165 814 185 834 c 256,44,45
 205 854 205 854 234 854 c 256,46,47
 263 854 263 854 283 834 c 256,48,49
 303 814 303 814 303 785 c 256,50,51
 303 756 303 756 283 736 c 256,52,53
 263 716 263 716 234 716 c 256,38,39
234 755 m 0,54,55
 247 755 247 755 256 764 c 0,56,57
 264 772 264 772 264 785 c 0,58,59
 264 797 264 797 256 807 c 0,60,61
 246 815 246 815 234 815 c 0,62,63
 221 815 221 815 213 807 c 0,64,65
 204 798 204 798 204 785 c 0,66,67
 204 771 204 771 213 764 c 0,68,69
 220 755 220 755 234 755 c 0,54,55
EndSplineSet
Validated: 1
EndChar

StartChar: V
Encoding: 86 86 56
Width: 383
GlyphClass: 1
Flags: W
LayerCount: 2
Fore
SplineSet
178 0 m 1,0,-1
 5 699 l 1,1,-1
 69 699 l 1,2,-1
 192 209 l 1,3,-1
 313 699 l 1,4,-1
 378 699 l 1,5,-1
 204 0 l 1,6,-1
 178 0 l 1,0,-1
EndSplineSet
Validated: 1
EndChar

StartChar: W.001
Encoding: 87 87 57
Width: 692
GlyphClass: 1
Flags: W
LayerCount: 2
Fore
SplineSet
178 0 m 1,0,-1
 5 699 l 1,1,-1
 69 699 l 1,2,-1
 192 209 l 1,3,-1
 313 699 l 1,4,-1
 379 699 l 1,5,-1
 500 209 l 1,6,-1
 622 699 l 1,7,-1
 687 699 l 1,8,-1
 513 0 l 1,9,-1
 487 0 l 1,10,-1
 346 569 l 1,11,-1
 204 0 l 1,12,-1
 178 0 l 1,0,-1
EndSplineSet
Validated: 1
EndChar

StartChar: X.001
Encoding: 88 88 58
Width: 386
GlyphClass: 1
Flags: W
LayerCount: 2
Fore
SplineSet
8 0 m 1,0,-1
 159 353 l 1,1,-1
 10 699 l 1,2,-1
 79 699 l 1,3,-1
 193 433 l 1,4,-1
 307 699 l 1,5,-1
 376 699 l 1,6,-1
 227 353 l 1,7,-1
 378 0 l 1,8,-1
 310 0 l 1,9,-1
 193 272 l 1,10,-1
 76 0 l 1,11,-1
 8 0 l 1,0,-1
EndSplineSet
Validated: 1
EndChar

StartChar: Y.001
Encoding: 89 89 59
Width: 529
GlyphClass: 1
Flags: W
LayerCount: 2
Fore
SplineSet
233 0 m 1,0,-1
 233 352 l 1,1,-1
 -1 699 l 1,2,-1
 75 699 l 1,3,-1
 265 418 l 1,4,-1
 456 699 l 1,5,-1
 532 699 l 1,6,-1
 296 352 l 1,7,-1
 296 0 l 1,8,-1
 233 0 l 1,0,-1
EndSplineSet
Validated: 1
EndChar

StartChar: Yacute
Encoding: 221 221 60
Width: 529
GlyphClass: 1
Flags: W
LayerCount: 2
Fore
SplineSet
233 0 m 1,0,-1
 233 352 l 1,1,-1
 -1 699 l 1,2,-1
 75 699 l 1,3,-1
 265 418 l 1,4,-1
 456 699 l 1,5,-1
 532 699 l 1,6,-1
 296 352 l 1,7,-1
 296 0 l 1,8,-1
 233 0 l 1,0,-1
275 829 m 1,9,-1
 337 829 l 1,10,-1
 266 739 l 1,11,-1
 232 739 l 1,12,-1
 275 829 l 1,9,-1
EndSplineSet
Validated: 1
EndChar

StartChar: Z.001
Encoding: 90 90 61
Width: 311
GlyphClass: 1
Flags: W
LayerCount: 2
Fore
SplineSet
10 636 m 1,0,-1
 10 699 l 1,1,-1
 301 699 l 1,2,-1
 96 63 l 1,3,-1
 301 63 l 1,4,-1
 301 0 l 1,5,-1
 10 0 l 1,6,-1
 214 636 l 1,7,-1
 10 636 l 1,0,-1
EndSplineSet
Validated: 1
EndChar

StartChar: Zacute.001
Encoding: 377 377 62
Width: 311
GlyphClass: 1
Flags: W
LayerCount: 2
Fore
SplineSet
10 636 m 1,0,-1
 10 699 l 1,1,-1
 301 699 l 1,2,-1
 96 63 l 1,3,-1
 301 63 l 1,4,-1
 301 0 l 1,5,-1
 10 0 l 1,6,-1
 214 636 l 1,7,-1
 10 636 l 1,0,-1
166 824 m 1,8,-1
 228 824 l 1,9,-1
 157 734 l 1,10,-1
 123 734 l 1,11,-1
 166 824 l 1,8,-1
EndSplineSet
Validated: 1
EndChar

StartChar: Zcaron.001
Encoding: 381 381 63
Width: 311
GlyphClass: 1
Flags: W
LayerCount: 2
Fore
SplineSet
10 636 m 1,0,-1
 10 699 l 1,1,-1
 301 699 l 1,2,-1
 96 63 l 1,3,-1
 301 63 l 1,4,-1
 301 0 l 1,5,-1
 10 0 l 1,6,-1
 214 636 l 1,7,-1
 10 636 l 1,0,-1
179 725 m 1,8,-1
 132 725 l 1,9,-1
 73 825 l 1,10,-1
 121 825 l 1,11,-1
 155 775 l 1,12,-1
 189 825 l 1,13,-1
 238 825 l 1,14,-1
 179 725 l 1,8,-1
EndSplineSet
Validated: 1
EndChar

StartChar: Zdotaccent.001
Encoding: 379 379 64
Width: 311
GlyphClass: 1
Flags: W
LayerCount: 2
Fore
SplineSet
10 636 m 1,0,-1
 10 699 l 1,1,-1
 301 699 l 1,2,-1
 96 63 l 1,3,-1
 301 63 l 1,4,-1
 301 0 l 1,5,-1
 10 0 l 1,6,-1
 214 636 l 1,7,-1
 10 636 l 1,0,-1
120 744 m 1,8,-1
 120 828 l 1,9,-1
 192 828 l 1,10,-1
 192 744 l 1,11,-1
 120 744 l 1,8,-1
EndSplineSet
Validated: 1
EndChar

StartChar: A.001
Encoding: 97 97 65
Width: 319
GlyphClass: 1
Flags: W
LayerCount: 2
Fore
SplineSet
173 569 m 1,0,-1
 315 0 l 1,1,-1
 253 0 l 1,2,-1
 234 78 l 1,3,-1
 85 78 l 1,4,-1
 66 0 l 1,5,-1
 4 0 l 1,6,-1
 145 569 l 1,7,-1
 173 569 l 1,0,-1
218 138 m 1,8,-1
 159 376 l 1,9,-1
 100 138 l 1,10,-1
 218 138 l 1,8,-1
EndSplineSet
Validated: 1
EndChar

StartChar: Aogonek
Encoding: 261 261 66
Width: 319
GlyphClass: 1
Flags: W
LayerCount: 2
Fore
SplineSet
173 569 m 1,0,-1
 315 0 l 1,1,-1
 253 0 l 1,2,-1
 234 78 l 1,3,-1
 85 78 l 1,4,-1
 66 0 l 1,5,-1
 4 0 l 1,6,-1
 145 569 l 1,7,-1
 173 569 l 1,0,-1
218 138 m 1,8,-1
 159 376 l 1,9,-1
 100 138 l 1,10,-1
 218 138 l 1,8,-1
315 0 m 1,11,12
 258 -45 258 -45 258 -80 c 0,13,14
 258 -104 258 -104 288 -104 c 2,15,-1
 322 -104 l 1,16,-1
 322 -159 l 1,17,-1
 288 -159 l 2,18,19
 205 -159 205 -159 205 -96 c 0,20,21
 205 -51 205 -51 272 0 c 5,22,-1
 315 0 l 1,11,12
EndSplineSet
Validated: 5
EndChar

StartChar: B.001
Encoding: 98 98 67
Width: 307
GlyphClass: 1
Flags: W
LayerCount: 2
Fore
SplineSet
104 569 m 1,0,1
 238 548 238 548 238 437 c 0,2,3
 238 377 238 377 202 346 c 1,4,5
 221 335 221 335 238 319 c 0,6,7
 256 299 256 299 267 279 c 0,8,9
 278 258 278 258 286 233 c 0,10,11
 293 209 293 209 293 186 c 0,12,13
 293 145 293 145 277 112 c 0,14,15
 261 78 261 78 234 53 c 0,16,17
 205 27 205 27 168 14 c 0,18,19
 129 0 129 0 85 0 c 2,20,-1
 48 0 l 1,21,-1
 48 569 l 1,22,-1
 104 569 l 1,0,1
109 60 m 1,23,24
 135 60 135 60 159 71 c 0,25,26
 170 76 170 76 180.5 83 c 128,-1,27
 191 90 191 90 199 99 c 0,28,29
 215 115 215 115 226 139 c 0,30,31
 235 161 235 161 235 186 c 0,32,33
 235 213 235 213 225 234 c 0,34,35
 214 258 214 258 198 274 c 0,36,37
 178 292 178 292 157 302 c 256,38,39
 136 312 136 312 109 312 c 1,40,-1
 109 60 l 1,23,24
107 363 m 1,41,42
 134 363 134 363 157 384 c 0,43,44
 179 403 179 403 179 436 c 0,45,46
 179 464 179 464 158 487 c 0,47,48
 137 508 137 508 107 508 c 1,49,-1
 107 363 l 1,41,42
EndSplineSet
Validated: 1
EndChar

StartChar: C.001
Encoding: 99 99 68
Width: 337
GlyphClass: 1
Flags: W
LayerCount: 2
Fore
SplineSet
115 410 m 0,0,1
 76 351 76 351 76 283 c 0,2,3
 76 234 76 234 95 195 c 0,4,5
 112 155 112 155 145 122 c 256,6,7
 178 89 178 89 218 72 c 0,8,9
 258 54 258 54 306 54 c 0,10,11
 326 54 326 54 327 55 c 1,12,-1
 327 -4 l 2,13,14
 326 -5 326 -5 306 -5 c 0,15,16
 249 -5 249 -5 195 18 c 0,17,18
 142 40 142 40 103 80 c 0,19,20
 63 119 63 119 41 172 c 0,21,22
 18 226 18 226 18 283 c 0,23,24
 18 342 18 342 41 396 c 0,25,26
 63 448 63 448 104 487 c 0,27,28
 144 527 144 527 195 549 c 256,29,30
 246 571 246 571 306 571 c 0,31,32
 326 571 326 571 327 570 c 2,33,-1
 327 511 l 1,34,35
 326 512 326 512 306 512 c 0,36,37
 247 512 247 512 198 485 c 0,38,39
 146 458 146 458 115 410 c 0,0,1
EndSplineSet
Validated: 1
EndChar

StartChar: D
Encoding: 100 100 69
Width: 374
GlyphClass: 1
Flags: W
LayerCount: 2
Fore
SplineSet
47 568 m 2,0,1
 48 569 48 569 68 569 c 0,2,3
 129 569 129 569 180 547 c 256,4,5
 231 525 231 525 271 485 c 256,6,7
 311 445 311 445 333 395 c 0,8,9
 356 341 356 341 356 285 c 0,10,11
 356 227 356 227 334 177 c 0,12,13
 312 126 312 126 272 86 c 0,14,15
 233 45 233 45 181 23 c 0,16,17
 127 0 127 0 68 0 c 2,18,-1
 47 0 l 1,19,-1
 47 568 l 2,0,1
107 62 m 1,20,21
 146 66 146 66 182 88 c 0,22,23
 218 109 218 109 243 139 c 0,24,25
 267 167 267 167 283 207 c 0,26,27
 297 246 297 246 297 285 c 0,28,29
 297 326 297 326 282 364 c 256,30,31
 267 402 267 402 242 431 c 0,32,33
 218 460 218 460 181 482 c 0,34,35
 145 502 145 502 107 508 c 1,36,-1
 107 62 l 1,20,21
EndSplineSet
Validated: 1
EndChar

StartChar: E
Encoding: 101 101 70
Width: 313
GlyphClass: 1
Flags: W
LayerCount: 2
Fore
SplineSet
48 569 m 1,0,-1
 300 569 l 1,1,-1
 300 508 l 1,2,-1
 109 508 l 1,3,-1
 109 414 l 1,4,-1
 255 414 l 1,5,-1
 255 354 l 1,6,-1
 109 354 l 1,7,-1
 109 60 l 1,8,-1
 300 60 l 1,9,-1
 300 0 l 1,10,-1
 48 0 l 1,11,-1
 48 569 l 1,0,-1
EndSplineSet
Validated: 1
EndChar

StartChar: F
Encoding: 102 102 71
Width: 311
GlyphClass: 1
Flags: W
LayerCount: 2
Fore
SplineSet
299 508 m 1,0,-1
 108 508 l 1,1,-1
 108 414 l 1,2,-1
 254 414 l 1,3,-1
 254 354 l 1,4,-1
 108 354 l 1,5,-1
 108 0 l 1,6,-1
 48 0 l 1,7,-1
 48 569 l 1,8,-1
 299 569 l 1,9,-1
 299 508 l 1,0,-1
EndSplineSet
Validated: 1
EndChar

StartChar: G
Encoding: 103 103 72
Width: 359
GlyphClass: 1
Flags: W
LayerCount: 2
Fore
SplineSet
115 413 m 0,0,1
 76 354 76 354 76 286 c 0,2,3
 76 246 76 246 91 209 c 0,4,5
 104 171 104 171 130 140 c 0,6,7
 156 108 156 108 190 87 c 0,8,9
 224 64 224 64 265 60 c 1,10,-1
 265 304 l 1,11,-1
 325 304 l 1,12,-1
 327 -1 l 2,13,14
 326 -2 326 -2 305 -2 c 0,15,16
 250 -2 250 -2 196 21 c 0,17,18
 143 43 143 43 105 82 c 0,19,20
 65 121 65 121 42 174 c 0,21,22
 18 226 18 226 18 286 c 0,23,24
 18 345 18 345 41 399 c 0,25,26
 63 451 63 451 104 490 c 0,27,28
 144 530 144 530 195 552 c 256,29,30
 246 574 246 574 306 574 c 0,31,32
 326 574 326 574 327 573 c 2,33,-1
 327 514 l 1,34,35
 326 515 326 515 306 515 c 0,36,37
 247 515 247 515 198 488 c 0,38,39
 146 461 146 461 115 413 c 0,0,1
EndSplineSet
Validated: 1
EndChar

StartChar: H
Encoding: 104 104 73
Width: 338
GlyphClass: 1
Flags: W
LayerCount: 2
Fore
SplineSet
229 569 m 1,0,-1
 290 569 l 1,1,-1
 290 0 l 1,2,-1
 229 0 l 1,3,-1
 229 354 l 1,4,-1
 108 354 l 1,5,-1
 108 0 l 1,6,-1
 48 0 l 1,7,-1
 48 569 l 1,8,-1
 108 569 l 1,9,-1
 108 414 l 1,10,-1
 229 414 l 1,11,-1
 229 569 l 1,0,-1
EndSplineSet
Validated: 1
EndChar

StartChar: I.001
Encoding: 105 105 74
Width: 154
GlyphClass: 1
Flags: W
LayerCount: 2
Fore
SplineSet
107 569 m 1,0,-1
 107 0 l 1,1,-1
 47 0 l 1,2,-1
 47 569 l 1,3,-1
 107 569 l 1,0,-1
EndSplineSet
Validated: 1
EndChar

StartChar: J
Encoding: 106 106 75
Width: 350
GlyphClass: 1
Flags: W
LayerCount: 2
Fore
SplineSet
61 154 m 1,0,1
 63 111 63 111 88 86 c 0,2,3
 112 59 112 59 154 59 c 0,4,5
 174 59 174 59 189 66 c 0,6,7
 207 74 207 74 219 85 c 0,8,9
 231 97 231 97 239 114 c 0,10,11
 247 132 247 132 247 151 c 2,12,-1
 247 569 l 1,13,-1
 306 569 l 1,14,-1
 306 151 l 2,15,16
 306 121 306 121 294 94 c 0,17,18
 280 65 280 65 260 45 c 0,19,20
 239 24 239 24 212 12 c 0,21,22
 183 0 183 0 154 0 c 256,23,24
 125 0 125 0 101 10 c 0,25,26
 88 15 88 15 76.5 22 c 128,-1,27
 65 29 65 29 55 38 c 0,28,29
 36 54 36 54 22 79 c 0,30,31
 8 103 8 103 4 131 c 1,32,-1
 61 154 l 1,0,1
EndSplineSet
Validated: 1
EndChar

StartChar: K
Encoding: 107 107 76
Width: 361
GlyphClass: 1
Flags: W
LayerCount: 2
Fore
SplineSet
48 0 m 1,0,-1
 48 569 l 1,1,-1
 108 569 l 1,2,-1
 108 369 l 1,3,-1
 276 569 l 1,4,-1
 355 569 l 1,5,-1
 129 300 l 1,6,-1
 381 0 l 1,7,-1
 302 0 l 1,8,-1
 108 231 l 1,9,-1
 108 0 l 1,10,-1
 48 0 l 1,0,-1
EndSplineSet
Validated: 1
EndChar

StartChar: L.001
Encoding: 108 108 77
Width: 310
GlyphClass: 1
Flags: W
LayerCount: 2
Fore
SplineSet
300 0 m 1,0,-1
 48 0 l 1,1,-1
 48 569 l 1,2,-1
 109 569 l 1,3,-1
 109 60 l 1,4,-1
 300 60 l 1,5,-1
 300 0 l 1,0,-1
EndSplineSet
Validated: 1
EndChar

StartChar: Lcaron
Encoding: 318 318 78
Width: 310
GlyphClass: 1
Flags: W
LayerCount: 2
Fore
SplineSet
300 0 m 1,0,-1
 48 0 l 1,1,-1
 48 569 l 1,2,-1
 109 569 l 1,3,-1
 109 60 l 1,4,-1
 300 60 l 1,5,-1
 300 0 l 1,0,-1
226 512 m 2,6,7
 226 430 226 430 168 430 c 1,8,-1
 168 457 l 1,9,10
 197 457 197 457 197 512 c 1,11,-1
 168 512 l 1,12,-1
 168 569 l 1,13,-1
 226 569 l 1,14,-1
 226 512 l 2,6,7
EndSplineSet
Validated: 1
EndChar

StartChar: Lslash
Encoding: 322 322 79
Width: 317
GlyphClass: 1
Flags: W
LayerCount: 2
Fore
SplineSet
116 298 m 1,0,-1
 116 60 l 1,1,-1
 307 60 l 1,2,-1
 307 0 l 1,3,-1
 55 0 l 1,4,-1
 55 240 l 1,5,-1
 21 208 l 1,6,-1
 -9 240 l 1,7,-1
 56 301 l 1,8,-1
 56 569 l 1,9,-1
 116 569 l 1,10,-1
 116 359 l 1,11,-1
 163 403 l 1,12,-1
 193 371 l 1,13,-1
 116 298 l 1,0,-1
EndSplineSet
Validated: 1
EndChar

StartChar: M.001
Encoding: 109 109 80
Width: 528
GlyphClass: 1
Flags: W
LayerCount: 2
Fore
SplineSet
174 569 m 1,0,-1
 264 207 l 1,1,-1
 354 569 l 1,2,-1
 383 569 l 1,3,-1
 524 0 l 1,4,-1
 462 0 l 1,5,-1
 368 376 l 1,6,-1
 275 0 l 1,7,-1
 254 0 l 1,8,-1
 160 376 l 1,9,-1
 66 0 l 1,10,-1
 4 0 l 1,11,-1
 146 569 l 1,12,-1
 174 569 l 1,0,-1
EndSplineSet
Validated: 1
EndChar

StartChar: N
Encoding: 110 110 81
Width: 338
GlyphClass: 1
Flags: W
LayerCount: 2
Fore
SplineSet
76 569 m 1,0,-1
 230 156 l 1,1,-1
 230 569 l 1,2,-1
 290 569 l 1,3,-1
 290 0 l 1,4,-1
 224 0 l 1,5,-1
 108 310 l 1,6,-1
 108 0 l 1,7,-1
 48 0 l 1,8,-1
 48 569 l 1,9,-1
 76 569 l 1,0,-1
EndSplineSet
Validated: 1
EndChar

StartChar: O
Encoding: 111 111 82
Width: 612
GlyphClass: 1
Flags: W
LayerCount: 2
Fore
SplineSet
594 283 m 256,0,1
 594 224 594 224 572 173 c 256,2,3
 550 122 550 122 510 82 c 0,4,5
 471 41 471 41 419 19 c 0,6,7
 366 -5 366 -5 306 -5 c 0,8,9
 249 -5 249 -5 195 18 c 0,10,11
 142 40 142 40 103 80 c 0,12,13
 63 119 63 119 41 172 c 0,14,15
 18 226 18 226 18 283 c 0,16,17
 18 342 18 342 41 396 c 0,18,19
 63 448 63 448 104 487 c 0,20,21
 144 527 144 527 195 549 c 256,22,23
 246 571 246 571 306 571 c 256,24,25
 366 571 366 571 417 549 c 0,26,27
 443 538 443 538 466 522.5 c 128,-1,28
 489 507 489 507 509 487 c 0,29,30
 549 447 549 447 571 396 c 0,31,32
 594 342 594 342 594 283 c 256,0,1
115 410 m 0,33,34
 76 351 76 351 76 283 c 0,35,36
 76 234 76 234 95 195 c 0,37,38
 112 155 112 155 145 122 c 256,39,40
 178 89 178 89 218 72 c 0,41,42
 258 54 258 54 306 54 c 0,43,44
 352 54 352 54 394 72 c 0,45,46
 434 89 434 89 467 122 c 0,47,48
 497 152 497 152 517 195 c 0,49,50
 535 235 535 235 535 283 c 0,51,52
 535 328 535 328 517 370 c 0,53,54
 498 412 498 412 469 443 c 0,55,56
 439 473 439 473 396 493 c 0,57,58
 355 512 355 512 306 512 c 0,59,60
 247 512 247 512 198 485 c 0,61,62
 146 458 146 458 115 410 c 0,33,34
EndSplineSet
Validated: 1
EndChar

StartChar: P
Encoding: 112 112 83
Width: 305
GlyphClass: 1
Flags: W
LayerCount: 2
Fore
SplineSet
108 243 m 1,0,1
 135 245 135 245 156 256 c 0,2,3
 178 266 178 266 195 285 c 0,4,5
 211 303 211 303 222 327 c 0,6,7
 232 348 232 348 232 376 c 0,8,9
 232 402 232 402 222 425 c 0,10,11
 211 447 211 447 195 467 c 0,12,13
 178 485 178 485 156 497 c 0,14,15
 145 502 145 502 133 505.5 c 128,-1,16
 121 509 121 509 108 510 c 1,17,-1
 108 243 l 1,0,1
108 0 m 1,18,-1
 48 0 l 1,19,-1
 48 569 l 1,20,-1
 108 568 l 2,21,22
 144 567 144 567 178 551 c 0,23,24
 210 535 210 535 236 509 c 0,25,26
 261 484 261 484 276 449 c 0,27,28
 290 413 290 413 290 376 c 0,29,30
 290 340 290 340 276 304 c 256,31,32
 262 268 262 268 237 243 c 0,33,34
 211 217 211 217 179 201 c 0,35,36
 148 186 148 186 108 184 c 1,37,-1
 108 0 l 1,18,-1
EndSplineSet
Validated: 1
EndChar

StartChar: Q
Encoding: 113 113 84
Width: 609
GlyphClass: 1
Flags: W
LayerCount: 2
Fore
SplineSet
594 288 m 0,0,1
 594 248 594 248 584 214 c 0,2,3
 573 175 573 175 556 145 c 0,4,5
 536 112 536 112 511 85 c 0,6,7
 485 59 485 59 452 40 c 1,8,9
 476 -9 476 -9 522 -12 c 1,10,-1
 522 -73 l 1,11,12
 494 -66 494 -66 479 -61 c 0,13,14
 463 -57 463 -57 448 -47 c 0,15,16
 434 -38 434 -38 424 -23 c 0,17,18
 419 -15 419 -15 413 -5.5 c 128,-1,19
 407 4 407 4 402 16 c 1,20,21
 367 0 367 0 306 0 c 0,22,23
 248 0 248 0 194 23 c 0,24,25
 141 45 141 45 102 85 c 0,26,27
 64 123 64 123 41 177 c 256,28,29
 18 231 18 231 18 288 c 0,30,31
 18 347 18 347 41 401 c 0,32,33
 63 453 63 453 104 492 c 0,34,35
 144 532 144 532 195 554 c 256,36,37
 246 576 246 576 306 576 c 256,38,39
 366 576 366 576 417 554 c 0,40,41
 443 543 443 543 466 527.5 c 128,-1,42
 489 512 489 512 509 492 c 0,43,44
 549 452 549 452 571 401 c 0,45,46
 594 347 594 347 594 288 c 0,0,1
395 136 m 1,47,48
 400 131 400 131 404.5 125 c 128,-1,49
 409 119 409 119 413 114 c 256,50,51
 417 109 417 109 420.5 103 c 128,-1,52
 424 97 424 97 426 92 c 1,53,54
 535 161 535 161 535 288 c 0,55,56
 535 333 535 333 518 376 c 0,57,58
 499 419 499 419 469 449 c 256,59,60
 439 479 439 479 396 499 c 0,61,62
 354 517 354 517 306 517 c 256,63,64
 258 517 258 517 218 499 c 0,65,66
 175 479 175 479 145 449 c 0,67,68
 112 416 112 416 95 376 c 0,69,70
 76 335 76 335 76 288 c 0,71,72
 76 239 76 239 95 200 c 0,73,74
 112 160 112 160 145 127 c 256,75,76
 178 94 178 94 218 77 c 0,77,78
 258 59 258 59 306 59 c 256,79,80
 354 59 354 59 375 69 c 1,81,82
 362 91 362 91 336 112 c 1,83,-1
 395 136 l 1,47,48
EndSplineSet
Validated: 1
EndChar

StartChar: R
Encoding: 114 114 85
Width: 315
GlyphClass: 1
Flags: W
LayerCount: 2
Fore
SplineSet
108 570 m 2,0,1
 141 570 141 570 180 552 c 0,2,3
 197 544 197 544 211 533 c 128,-1,4
 225 522 225 522 238 509 c 0,5,6
 265 478 265 478 277 448 c 0,7,8
 291 412 291 412 291 377 c 0,9,10
 291 351 291 351 283 322 c 0,11,12
 274 293 274 293 259 271 c 0,13,14
 251 260 251 260 242 249.5 c 128,-1,15
 233 239 233 239 222 230 c 0,16,17
 201 212 201 212 175 201 c 1,18,19
 177 197 177 197 180 193.5 c 128,-1,20
 183 190 183 190 186 185 c 256,21,22
 189 180 189 180 192.5 174.5 c 0,23,24
 197.798165138 166.311926606 197.798165138 166.311926606 200 162 c 2,25,-1
 224 115 l 2,26,27
 247 70 247 70 295 56 c 1,28,-1
 295 -5 l 1,29,30
 278 0 278 0 265.5 5 c 128,-1,31
 253 10 253 10 243 15 c 0,32,33
 231 20 231 20 211 33 c 0,34,35
 199 41 199 41 191 55 c 0,36,37
 187 62 187 62 183 69.5 c 0,38,39
 176 85 176 85 175 87 c 2,40,-1
 165 111 l 2,41,42
 163 115 163 115 160.5 120 c 128,-1,43
 158 125 158 125 154 132 c 0,44,45
 140 155 140 155 133 162 c 2,46,-1
 120 175 l 1,47,-1
 113 182 l 6,48,49
 112 183 112 183 111.5 183.5 c 128,-1,50
 111 184 111 184 109 186 c 5,51,-1
 109 186 l 1,52,-1
 109 1 l 1,53,-1
 48 1 l 1,54,-1
 48 570 l 1,55,-1
 108 570 l 2,0,1
108 244 m 1,56,57
 132 246 132 246 154 256 c 256,58,59
 176 266 176 266 194 284 c 256,60,61
 212 302 212 302 222 325 c 0,62,63
 232 346 232 346 232 377 c 0,64,65
 232 403 232 403 223 427 c 0,66,67
 212 451 212 451 196 468 c 0,68,69
 179 486 179 486 157 498 c 0,70,71
 146 503 146 503 133.5 506.5 c 128,-1,72
 121 510 121 510 108 511 c 1,73,-1
 108 244 l 1,56,57
EndSplineSet
Validated: 524293
EndChar

StartChar: S
Encoding: 115 115 86
Width: 261
GlyphClass: 1
Flags: W
LayerCount: 2
Fore
SplineSet
10 106 m 1,0,1
 60 59 60 59 107 59 c 0,2,3
 121 59 121 59 138 65 c 0,4,5
 146 68 146 68 153 72.5 c 128,-1,6
 160 77 160 77 167 82 c 0,7,8
 180 93 180 93 187 109 c 0,9,10
 195 125 195 125 195 143 c 0,11,12
 195 169 195 169 149 242 c 1,13,-1
 107 300 l 2,14,15
 34 400 34 400 34 455 c 0,16,17
 34 505 34 505 66 537 c 0,18,19
 97 568 97 568 146 568 c 0,20,21
 197 568 197 568 233 521 c 1,22,-1
 193 484 l 1,23,24
 165 509 165 509 140 509 c 0,25,26
 91 509 91 509 91 464 c 0,27,28
 91 427 91 427 164 327 c 1,29,30
 251 187 251 187 251 134 c 0,31,32
 251 107 251 107 240 80 c 0,33,34
 230 55 230 55 210 37 c 0,35,36
 190 17 190 17 165 7 c 0,37,38
 138 -4 138 -4 108 -4 c 0,39,40
 60 -4 60 -4 10 28 c 1,41,-1
 10 106 l 1,0,1
EndSplineSet
Validated: 1
EndChar

StartChar: Sacute
Encoding: 347 347 87
Width: 261
GlyphClass: 1
Flags: W
LayerCount: 2
Fore
SplineSet
10 106 m 1,0,1
 60 59 60 59 107 59 c 0,2,3
 121 59 121 59 138 65 c 0,4,5
 146 68 146 68 153 72.5 c 128,-1,6
 160 77 160 77 167 82 c 0,7,8
 180 93 180 93 187 109 c 0,9,10
 195 125 195 125 195 143 c 0,11,12
 195 169 195 169 149 242 c 1,13,-1
 107 300 l 2,14,15
 34 400 34 400 34 455 c 0,16,17
 34 505 34 505 66 537 c 0,18,19
 97 568 97 568 146 568 c 0,20,21
 197 568 197 568 233 521 c 1,22,-1
 193 484 l 1,23,24
 165 509 165 509 140 509 c 0,25,26
 91 509 91 509 91 464 c 0,27,28
 91 427 91 427 164 327 c 1,29,30
 251 187 251 187 251 134 c 0,31,32
 251 107 251 107 240 80 c 0,33,34
 230 55 230 55 210 37 c 0,35,36
 190 17 190 17 165 7 c 0,37,38
 138 -4 138 -4 108 -4 c 0,39,40
 60 -4 60 -4 10 28 c 1,41,-1
 10 106 l 1,0,1
146 699 m 1,42,-1
 208 699 l 1,43,-1
 137 609 l 1,44,-1
 103 609 l 1,45,-1
 146 699 l 1,42,-1
EndSplineSet
Validated: 1
EndChar

StartChar: Scaron
Encoding: 353 353 88
Width: 261
GlyphClass: 1
Flags: W
LayerCount: 2
Fore
SplineSet
10 106 m 1,0,1
 60 59 60 59 107 59 c 0,2,3
 121 59 121 59 138 65 c 0,4,5
 146 68 146 68 153 72.5 c 128,-1,6
 160 77 160 77 167 82 c 0,7,8
 180 93 180 93 187 109 c 0,9,10
 195 125 195 125 195 143 c 0,11,12
 195 169 195 169 149 242 c 1,13,-1
 107 300 l 2,14,15
 34 400 34 400 34 455 c 0,16,17
 34 505 34 505 66 537 c 0,18,19
 97 568 97 568 146 568 c 0,20,21
 197 568 197 568 233 521 c 1,22,-1
 193 484 l 1,23,24
 165 509 165 509 140 509 c 0,25,26
 91 509 91 509 91 464 c 0,27,28
 91 427 91 427 164 327 c 1,29,30
 251 187 251 187 251 134 c 0,31,32
 251 107 251 107 240 80 c 0,33,34
 230 55 230 55 210 37 c 0,35,36
 190 17 190 17 165 7 c 0,37,38
 138 -4 138 -4 108 -4 c 0,39,40
 60 -4 60 -4 10 28 c 1,41,-1
 10 106 l 1,0,1
160 600 m 1,42,-1
 113 600 l 1,43,-1
 54 700 l 1,44,-1
 102 700 l 1,45,-1
 136 650 l 1,46,-1
 170 700 l 1,47,-1
 219 700 l 1,48,-1
 160 600 l 1,42,-1
EndSplineSet
Validated: 1
EndChar

StartChar: Scedilla
Encoding: 351 351 89
Width: 261
GlyphClass: 1
Flags: W
LayerCount: 2
Fore
SplineSet
10 106 m 1,0,1
 60 59 60 59 107 59 c 0,2,3
 121 59 121 59 138 65 c 0,4,5
 146 68 146 68 153 72.5 c 128,-1,6
 160 77 160 77 167 82 c 0,7,8
 180 93 180 93 187 109 c 0,9,10
 195 125 195 125 195 143 c 0,11,12
 195 169 195 169 149 242 c 1,13,-1
 107 300 l 2,14,15
 34 400 34 400 34 455 c 0,16,17
 34 505 34 505 66 537 c 0,18,19
 97 568 97 568 146 568 c 0,20,21
 197 568 197 568 233 521 c 1,22,-1
 193 484 l 1,23,24
 165 509 165 509 140 509 c 0,25,26
 91 509 91 509 91 464 c 0,27,28
 91 427 91 427 164 327 c 1,29,30
 251 187 251 187 251 134 c 0,31,32
 251 107 251 107 240 80 c 0,33,34
 230 55 230 55 210 37 c 0,35,36
 190 17 190 17 165 7 c 0,37,38
 138 -4 138 -4 108 -4 c 0,39,40
 60 -4 60 -4 10 28 c 1,41,-1
 10 106 l 1,0,1
148 -7 m 1,42,43
 199 -15 199 -15 199 -63 c 0,44,45
 199 -134 199 -134 106 -134 c 1,46,-1
 65 -132 l 1,47,-1
 65 -86 l 1,48,-1
 116 -89 l 2,49,50
 150 -91 150 -91 150 -63 c 0,51,52
 150 -40 150 -40 99 -40 c 1,53,-1
 123 -5 l 5,54,-1
 148 0 l 1,55,-1
 148 -7 l 1,42,43
EndSplineSet
Validated: 33
EndChar

StartChar: germandbls
Encoding: 223 223 90
Width: 376
GlyphClass: 1
Flags: W
LayerCount: 2
Fore
SplineSet
145 95 m 1,0,1
 182 64 182 64 218 64 c 0,2,3
 237 64 237 64 252 71 c 0,4,5
 267 76 267 76 281 89 c 0,6,7
 294 101 294 101 302 118 c 0,8,9
 310 136 310 136 310 154 c 0,10,11
 308 191 308 191 264 259 c 2,12,-1
 222 322 l 2,13,14
 148 432 148 432 148 497 c 0,15,16
 150 522 150 522 158 542 c 0,17,18
 167 562 167 562 182 577 c 256,19,20
 197 592 197 592 217 601 c 0,21,22
 236 610 236 610 259 610 c 1,23,24
 233 636 233 636 196 636 c 0,25,26
 178 636 178 636 160 628 c 0,27,28
 143 620 143 620 131 607 c 0,29,30
 124 600 124 600 119.5 592 c 128,-1,31
 115 584 115 584 111 575 c 0,32,33
 103 556 103 556 103 537 c 2,34,-1
 103 85 l 1,35,-1
 44 85 l 1,36,-1
 44 537 l 2,37,38
 44 568 44 568 56 598 c 0,39,40
 67 627 67 627 88 650 c 0,41,42
 107 672 107 672 136 686 c 0,43,44
 163 699 163 699 196 699 c 0,45,46
 311 699 311 699 348 560 c 1,47,-1
 308 520 l 1,48,49
 276 546 276 546 255 546 c 0,50,51
 206 546 206 546 206 498 c 0,52,53
 207 491 207 491 209.5 481.5 c 128,-1,54
 212 472 212 472 217 460 c 0,55,56
 227 433 227 433 248 400 c 2,57,-1
 289 334 l 2,58,59
 308 303 308 303 322.5 276.5 c 128,-1,60
 337 250 337 250 347 227 c 0,61,62
 366 182 366 182 366 144 c 0,63,64
 366 113 366 113 356 87 c 0,65,66
 345 59 345 59 326 40 c 0,67,68
 305 18 305 18 282 8 c 0,69,70
 256 -4 256 -4 225 -4 c 0,71,72
 184 -4 184 -4 145 17 c 1,73,-1
 145 95 l 1,0,1
EndSplineSet
Validated: 1
EndChar

StartChar: T
Encoding: 116 116 91
Width: 269
GlyphClass: 1
Flags: W
LayerCount: 2
Fore
SplineSet
105 0 m 1,0,-1
 105 508 l 1,1,-1
 9 508 l 1,2,-1
 9 569 l 1,3,-1
 260 569 l 1,4,-1
 260 508 l 1,5,-1
 165 508 l 1,6,-1
 165 0 l 1,7,-1
 105 0 l 1,0,-1
EndSplineSet
Validated: 1
EndChar

StartChar: Tcaron.001
Encoding: 357 357 92
Width: 269
GlyphClass: 1
Flags: W
LayerCount: 2
Fore
SplineSet
105 0 m 1,0,-1
 105 508 l 1,1,-1
 9 508 l 1,2,-1
 9 569 l 1,3,-1
 260 569 l 1,4,-1
 260 508 l 1,5,-1
 165 508 l 1,6,-1
 165 0 l 1,7,-1
 105 0 l 1,0,-1
158 600 m 1,8,-1
 111 600 l 1,9,-1
 52 700 l 1,10,-1
 100 700 l 1,11,-1
 134 650 l 1,12,-1
 168 700 l 1,13,-1
 217 700 l 1,14,-1
 158 600 l 1,8,-1
EndSplineSet
Validated: 1
EndChar

StartChar: U
Encoding: 117 117 93
Width: 384
GlyphClass: 1
Flags: W
LayerCount: 2
Fore
SplineSet
340 569 m 1,0,-1
 340 146 l 2,1,2
 340 115 340 115 329 87 c 0,3,4
 317 59 317 59 297 39 c 256,5,6
 277 19 277 19 250 7 c 256,7,8
 223 -5 223 -5 192 -5 c 256,9,10
 161 -5 161 -5 136 7 c 0,11,12
 109 19 109 19 89 39 c 0,13,14
 68 58 68 58 56 86 c 0,15,16
 44 113 44 113 44 143 c 2,17,-1
 44 569 l 1,18,-1
 103 569 l 1,19,-1
 104 143 l 2,20,21
 105 105 105 105 131 80 c 0,22,23
 157 54 157 54 192 54 c 0,24,25
 212 54 212 54 227 61 c 0,26,27
 243 67 243 67 255 79 c 0,28,29
 266 90 266 90 274 108 c 0,30,31
 281 123 281 123 281 143 c 2,32,-1
 281 569 l 1,33,-1
 340 569 l 1,0,-1
EndSplineSet
Validated: 1
EndChar

StartChar: V.001
Encoding: 118 118 94
Width: 320
GlyphClass: 1
Flags: W
LayerCount: 2
Fore
SplineSet
146 0 m 1,0,-1
 4 569 l 1,1,-1
 66 569 l 1,2,-1
 160 192 l 1,3,-1
 254 569 l 1,4,-1
 316 569 l 1,5,-1
 174 0 l 1,6,-1
 146 0 l 1,0,-1
EndSplineSet
Validated: 1
EndChar

StartChar: W
Encoding: 119 119 95
Width: 567
GlyphClass: 1
Flags: W
LayerCount: 2
Fore
SplineSet
146 0 m 1,0,-1
 4 569 l 1,1,-1
 66 569 l 1,2,-1
 160 192 l 1,3,-1
 254 569 l 1,4,-1
 313 569 l 1,5,-1
 407 192 l 1,6,-1
 501 569 l 1,7,-1
 563 569 l 1,8,-1
 421 0 l 1,9,-1
 393 0 l 1,10,-1
 284 440 l 1,11,-1
 174 0 l 1,12,-1
 146 0 l 1,0,-1
EndSplineSet
Validated: 1
EndChar

StartChar: X
Encoding: 120 120 96
Width: 324
GlyphClass: 1
Flags: W
LayerCount: 2
Fore
SplineSet
6 0 m 1,0,-1
 129 287 l 1,1,-1
 8 569 l 1,2,-1
 73 569 l 1,3,-1
 162 363 l 1,4,-1
 250 569 l 1,5,-1
 315 569 l 1,6,-1
 194 287 l 1,7,-1
 318 0 l 1,8,-1
 252 0 l 1,9,-1
 162 210 l 1,10,-1
 71 0 l 1,11,-1
 6 0 l 1,0,-1
EndSplineSet
Validated: 1
EndChar

StartChar: Y
Encoding: 121 121 97
Width: 450
GlyphClass: 1
Flags: W
LayerCount: 2
Fore
SplineSet
195 0 m 1,0,-1
 195 285 l 1,1,-1
 2 569 l 1,2,-1
 75 569 l 1,3,-1
 225 348 l 1,4,-1
 374 569 l 1,5,-1
 447 569 l 1,6,-1
 255 285 l 1,7,-1
 255 0 l 1,8,-1
 195 0 l 1,0,-1
EndSplineSet
Validated: 1
EndChar

StartChar: Z
Encoding: 122 122 98
Width: 262
GlyphClass: 1
Flags: W
LayerCount: 2
Fore
SplineSet
10 508 m 1,0,-1
 10 569 l 1,1,-1
 254 569 l 1,2,-1
 90 60 l 1,3,-1
 252 60 l 1,4,-1
 252 0 l 1,5,-1
 8 0 l 1,6,-1
 172 508 l 1,7,-1
 10 508 l 1,0,-1
EndSplineSet
Validated: 1
EndChar

StartChar: Zacute
Encoding: 378 378 99
Width: 262
GlyphClass: 1
Flags: W
LayerCount: 2
Fore
SplineSet
10 508 m 1,0,-1
 10 569 l 1,1,-1
 254 569 l 1,2,-1
 90 60 l 1,3,-1
 252 60 l 1,4,-1
 252 0 l 1,5,-1
 8 0 l 1,6,-1
 172 508 l 1,7,-1
 10 508 l 1,0,-1
144 699 m 1,8,-1
 206 699 l 1,9,-1
 135 609 l 1,10,-1
 101 609 l 1,11,-1
 144 699 l 1,8,-1
EndSplineSet
Validated: 1
EndChar

StartChar: Zcaron
Encoding: 382 382 100
Width: 262
GlyphClass: 1
Flags: W
LayerCount: 2
Fore
SplineSet
10 508 m 1,0,-1
 10 569 l 1,1,-1
 254 569 l 1,2,-1
 90 60 l 1,3,-1
 252 60 l 1,4,-1
 252 0 l 1,5,-1
 8 0 l 1,6,-1
 172 508 l 1,7,-1
 10 508 l 1,0,-1
158 600 m 1,8,-1
 111 600 l 1,9,-1
 52 700 l 1,10,-1
 100 700 l 1,11,-1
 134 650 l 1,12,-1
 168 700 l 1,13,-1
 217 700 l 1,14,-1
 158 600 l 1,8,-1
EndSplineSet
Validated: 1
EndChar

StartChar: Zdotaccent
Encoding: 380 380 101
Width: 262
GlyphClass: 1
Flags: W
LayerCount: 2
Fore
SplineSet
10 508 m 1,0,-1
 10 569 l 1,1,-1
 254 569 l 1,2,-1
 90 60 l 1,3,-1
 252 60 l 1,4,-1
 252 0 l 1,5,-1
 8 0 l 1,6,-1
 172 508 l 1,7,-1
 10 508 l 1,0,-1
99 619 m 1,8,-1
 99 703 l 1,9,-1
 171 703 l 1,10,-1
 171 619 l 1,11,-1
 99 619 l 1,8,-1
EndSplineSet
Validated: 1
EndChar

StartChar: mu
Encoding: 181 181 102
Width: 392
GlyphClass: 1
Flags: W
LayerCount: 2
Fore
SplineSet
109 143 m 2,0,1
 111 141 111 141 114 127 c 0,2,3
 115 115 115 115 125 97 c 0,4,5
 134 81 134 81 151 67 c 0,6,7
 167 54 167 54 198 54 c 0,8,9
 219 54 219 54 234 61 c 0,10,11
 250 68 250 68 262 80 c 0,12,13
 273 91 273 91 281 108 c 0,14,15
 288 123 288 123 288 143 c 2,16,-1
 288 571 l 1,17,-1
 346 571 l 1,18,-1
 346 146 l 2,19,20
 346 115 346 115 335 87 c 0,21,22
 323 59 323 59 303 39 c 256,23,24
 283 19 283 19 256 7 c 256,25,26
 229 -5 229 -5 198 -5 c 0,27,28
 146 -5 146 -5 109 25 c 1,29,-1
 109 -98 l 1,30,-1
 49 -98 l 1,31,-1
 49 572 l 1,32,-1
 109 572 l 1,33,-1
 109 143 l 2,0,1
EndSplineSet
Validated: 1
EndChar

StartChar: asterisk
Encoding: 42 42 103
Width: 364
GlyphClass: 1
Flags: W
LayerCount: 2
Fore
SplineSet
183 503 m 1,0,-1
 219 381 l 1,1,-1
 339 381 l 1,2,-1
 243 305 l 1,3,-1
 280 183 l 1,4,-1
 183 259 l 1,5,-1
 85 183 l 1,6,-1
 122 305 l 1,7,-1
 25 381 l 1,8,-1
 145 381 l 1,9,-1
 183 503 l 1,0,-1
EndSplineSet
Validated: 1
EndChar

StartChar: backslash
Encoding: 92 92 104
Width: 417
GlyphClass: 1
Flags: W
LayerCount: 2
Fore
SplineSet
396 24 m 1,0,-1
 348 0 l 1,1,-1
 22 692 l 1,2,-1
 70 716 l 1,3,-1
 396 24 l 1,0,-1
EndSplineSet
Validated: 1
EndChar

StartChar: periodcentered
Encoding: 183 183 105
Width: 148
GlyphClass: 1
Flags: W
LayerCount: 2
Fore
SplineSet
73 177 m 0,0,1
 55 177 55 177 45 190 c 0,2,3
 34 203 34 203 34 217 c 256,4,5
 34 231 34 231 45 245 c 0,6,7
 55 257 55 257 73 257 c 0,8,9
 89 257 89 257 102 246 c 0,10,11
 113 233 113 233 113 217 c 0,12,13
 113 204 113 204 102 190 c 0,14,15
 92 177 92 177 73 177 c 0,0,1
EndSplineSet
Validated: 1
EndChar

StartChar: bullet
Encoding: 8226 8226 106
Width: 246
GlyphClass: 1
Flags: W
LayerCount: 2
Fore
SplineSet
123 296 m 0,0,1
 143 296 143 296 160 281 c 0,2,3
 175 264 175 264 175 244 c 0,4,5
 175 220 175 220 159 207 c 0,6,7
 142 192 142 192 123 192 c 0,8,9
 101 192 101 192 86 207 c 256,10,11
 71 222 71 222 71 244 c 0,12,13
 71 265 71 265 87 281 c 0,14,15
 102 296 102 296 123 296 c 0,0,1
EndSplineSet
Validated: 1
EndChar

StartChar: colon
Encoding: 58 58 107
Width: 148
GlyphClass: 1
Flags: W
LayerCount: 2
Fore
SplineSet
106 0 m 1,0,-1
 42 0 l 1,1,-1
 42 64 l 1,2,-1
 106 64 l 1,3,-1
 106 0 l 1,0,-1
106 333 m 1,4,-1
 42 333 l 1,5,-1
 42 397 l 1,6,-1
 106 397 l 1,7,-1
 106 333 l 1,4,-1
EndSplineSet
Validated: 1
EndChar

StartChar: comma
Encoding: 44 44 108
Width: 103
GlyphClass: 1
Flags: W
LayerCount: 2
Fore
SplineSet
80 0 m 2,0,1
 80 -82 80 -82 23 -82 c 1,2,-1
 23 -55 l 1,3,4
 51 -55 51 -55 51 0 c 1,5,-1
 23 0 l 1,6,-1
 23 58 l 1,7,-1
 80 58 l 1,8,-1
 80 0 l 2,0,1
EndSplineSet
Validated: 1
EndChar

StartChar: ellipsis
Encoding: 8230 8230 109
Width: 426
GlyphClass: 1
Flags: W
LayerCount: 2
Fore
SplineSet
83 0 m 1,0,-1
 19 0 l 1,1,-1
 19 64 l 1,2,-1
 83 64 l 1,3,-1
 83 0 l 1,0,-1
245 0 m 1,4,-1
 181 0 l 1,5,-1
 181 64 l 1,6,-1
 245 64 l 1,7,-1
 245 0 l 1,4,-1
407 0 m 1,8,-1
 343 0 l 1,9,-1
 343 64 l 1,10,-1
 407 64 l 1,11,-1
 407 0 l 1,8,-1
EndSplineSet
Validated: 1
EndChar

StartChar: exclam
Encoding: 33 33 110
Width: 150
GlyphClass: 1
Flags: W
LayerCount: 2
Fore
SplineSet
104 0 m 1,0,-1
 46 0 l 1,1,-1
 46 58 l 1,2,-1
 104 58 l 1,3,-1
 104 0 l 1,0,-1
47 125 m 1,4,-1
 47 700 l 1,5,-1
 103 700 l 1,6,-1
 103 125 l 1,7,-1
 47 125 l 1,4,-1
EndSplineSet
Validated: 1
EndChar

StartChar: numbersign
Encoding: 35 35 111
Width: 422
GlyphClass: 1
Flags: W
LayerCount: 2
Fore
SplineSet
179 398 m 1,0,-1
 153 280 l 1,1,-1
 241 280 l 1,2,-1
 268 398 l 1,3,-1
 179 398 l 1,0,-1
84 168 m 1,4,-1
 98 235 l 1,5,-1
 28 235 l 1,6,-1
 39 280 l 1,7,-1
 107 280 l 1,8,-1
 133 398 l 1,9,-1
 60 398 l 1,10,-1
 70 443 l 1,11,-1
 143 443 l 1,12,-1
 156 506 l 1,13,-1
 202 506 l 1,14,-1
 189 443 l 1,15,-1
 277 443 l 1,16,-1
 291 506 l 1,17,-1
 337 506 l 1,18,-1
 323 443 l 1,19,-1
 395 443 l 1,20,-1
 384 398 l 1,21,-1
 313 398 l 1,22,-1
 287 280 l 1,23,-1
 363 280 l 1,24,-1
 353 235 l 1,25,-1
 278 235 l 1,26,-1
 264 168 l 1,27,-1
 218 168 l 1,28,-1
 232 235 l 1,29,-1
 144 235 l 1,30,-1
 129 168 l 1,31,-1
 84 168 l 1,4,-1
EndSplineSet
Validated: 1
EndChar

StartChar: period
Encoding: 46 46 112
Width: 96
GlyphClass: 1
Flags: W
LayerCount: 2
Fore
SplineSet
77 0 m 1,0,-1
 19 0 l 1,1,-1
 19 58 l 1,2,-1
 77 58 l 1,3,-1
 77 0 l 1,0,-1
EndSplineSet
Validated: 1
EndChar

StartChar: question
Encoding: 63 63 113
Width: 305
GlyphClass: 1
Flags: W
LayerCount: 2
Fore
SplineSet
98 204 m 1,0,-1
 97 230 l 2,1,2
 97 315 97 315 165 437 c 0,3,4
 212 523 212 523 212 569 c 0,5,6
 212 646 212 646 150 646 c 0,7,8
 120 646 120 646 102 623 c 0,9,10
 84 599 84 599 84 564 c 2,11,-1
 84 561 l 1,12,-1
 31 566 l 1,13,14
 32 626 32 626 64 662 c 0,15,16
 94 698 94 698 154 698 c 0,17,18
 212 698 212 698 244 663 c 0,19,20
 275 629 275 629 275 571 c 2,21,-1
 275 569 l 2,22,23
 275 510 275 510 214 410 c 2,24,-1
 189 369 l 2,25,26
 147 301 147 301 147 223 c 1,27,-1
 148 204 l 1,28,-1
 98 204 l 1,0,-1
86 0 m 1,29,-1
 86 85 l 1,30,-1
 160 85 l 1,31,-1
 160 0 l 1,32,-1
 86 0 l 1,29,-1
EndSplineSet
Validated: 1
EndChar

StartChar: quotedbl
Encoding: 34 34 114
Width: 222
GlyphClass: 1
Flags: W
LayerCount: 2
Fore
SplineSet
189 535 m 1,0,-1
 152 535 l 1,1,-1
 152 700 l 1,2,-1
 194 700 l 1,3,-1
 189 535 l 1,0,-1
73 535 m 1,4,-1
 31 535 l 1,5,-1
 31 700 l 1,6,-1
 73 700 l 1,7,-1
 73 535 l 1,4,-1
EndSplineSet
Validated: 1
EndChar

StartChar: quotesingle
Encoding: 39 39 115
Width: 112
GlyphClass: 1
Flags: W
LayerCount: 2
Fore
SplineSet
77 481 m 1,0,-1
 35 481 l 1,1,-1
 35 700 l 1,2,-1
 77 700 l 1,3,-1
 77 481 l 1,0,-1
EndSplineSet
Validated: 1
EndChar

StartChar: semicolon
Encoding: 59 59 116
Width: 154
GlyphClass: 1
Flags: W
LayerCount: 2
Fore
SplineSet
109 0 m 2,0,1
 109 -91 109 -91 45 -91 c 1,2,-1
 45 -61 l 1,3,4
 76 -61 76 -61 76 0 c 1,5,-1
 45 0 l 1,6,-1
 45 63 l 1,7,-1
 109 63 l 1,8,-1
 109 0 l 2,0,1
109 333 m 1,9,-1
 45 333 l 1,10,-1
 45 397 l 1,11,-1
 109 397 l 1,12,-1
 109 333 l 1,9,-1
EndSplineSet
Validated: 1
EndChar

StartChar: slash
Encoding: 47 47 117
Width: 387
GlyphClass: 1
Flags: W
LayerCount: 2
Fore
SplineSet
367 703 m 1,0,-1
 67 -46 l 1,1,-1
 21 -26 l 1,2,-1
 321 723 l 1,3,-1
 367 703 l 1,0,-1
EndSplineSet
Validated: 1
EndChar

StartChar: underscore
Encoding: 95 95 118
Width: 390
GlyphClass: 1
Flags: W
LayerCount: 2
Fore
SplineSet
390 -78 m 1,0,-1
 0 -78 l 1,1,-1
 0 -47 l 1,2,-1
 390 -47 l 1,3,-1
 390 -78 l 1,0,-1
EndSplineSet
Validated: 1
EndChar

StartChar: braceleft
Encoding: 123 123 119
Width: 213
GlyphClass: 1
Flags: W
LayerCount: 2
Fore
SplineSet
207 -83 m 1,0,1
 82 -78 82 -78 82 59 c 2,2,-1
 82 204 l 2,3,4
 82 319 82 319 6 331 c 1,5,-1
 6 362 l 1,6,7
 82 372 82 372 82 480 c 2,8,-1
 82 634 l 2,9,10
 82 770 82 770 207 776 c 1,11,-1
 207 735 l 1,12,13
 162 732 162 732 146 707 c 0,14,15
 129 681 129 681 129 620 c 2,16,-1
 129 477 l 2,17,18
 129 368 129 368 58 347 c 1,19,-1
 58 345 l 1,20,21
 129 322 129 322 129 208 c 2,22,-1
 129 73 l 2,23,24
 129 10 129 10 147 -15 c 0,25,26
 163 -41 163 -41 207 -42 c 1,27,-1
 207 -83 l 1,0,1
EndSplineSet
Validated: 1
EndChar

StartChar: braceright
Encoding: 125 125 120
Width: 213
GlyphClass: 1
Flags: W
LayerCount: 2
Fore
SplineSet
6 -42 m 1,0,1
 48 -41 48 -41 66 -15 c 0,2,3
 84 10 84 10 84 73 c 2,4,-1
 84 208 l 2,5,6
 84 322 84 322 155 345 c 1,7,-1
 155 347 l 1,8,9
 84 368 84 368 84 477 c 2,10,-1
 84 620 l 2,11,12
 84 681 84 681 67 707 c 0,13,14
 51 732 51 732 6 735 c 1,15,-1
 6 776 l 1,16,17
 131 770 131 770 131 634 c 2,18,-1
 131 480 l 2,19,20
 131 372 131 372 207 362 c 1,21,-1
 207 331 l 1,22,23
 131 319 131 319 131 204 c 2,24,-1
 131 59 l 2,25,26
 131 -78 131 -78 6 -83 c 1,27,-1
 6 -42 l 1,0,1
EndSplineSet
Validated: 1
EndChar

StartChar: bracketleft
Encoding: 91 91 121
Width: 199
GlyphClass: 1
Flags: W
LayerCount: 2
Fore
SplineSet
195 0 m 1,0,-1
 45 0 l 1,1,-1
 45 780 l 1,2,-1
 195 780 l 1,3,-1
 195 729 l 1,4,-1
 98 729 l 1,5,-1
 98 50 l 1,6,-1
 195 50 l 1,7,-1
 195 0 l 1,0,-1
EndSplineSet
Validated: 1
EndChar

StartChar: bracketright
Encoding: 93 93 122
Width: 199
GlyphClass: 1
Flags: W
LayerCount: 2
Fore
SplineSet
4 50 m 1,0,-1
 101 50 l 1,1,-1
 101 729 l 1,2,-1
 4 729 l 1,3,-1
 4 780 l 1,4,-1
 154 780 l 1,5,-1
 154 0 l 1,6,-1
 4 0 l 1,7,-1
 4 50 l 1,0,-1
EndSplineSet
Validated: 1
EndChar

StartChar: parenleft
Encoding: 40 40 123
Width: 205
GlyphClass: 1
Flags: W
LayerCount: 2
Fore
SplineSet
172 -140 m 1,0,1
 24 32 24 32 24 286 c 0,2,3
 24 549 24 549 174 720 c 1,4,-1
 222 720 l 1,5,6
 69 544 69 544 69 287 c 0,7,8
 69 44 69 44 220 -140 c 1,9,-1
 172 -140 l 1,0,1
EndSplineSet
Validated: 1
EndChar

StartChar: parenright
Encoding: 41 41 124
Width: 204
GlyphClass: 1
Flags: W
LayerCount: 2
Fore
SplineSet
-16 -140 m 1,0,1
 135 44 135 44 135 287 c 0,2,3
 135 544 135 544 -18 720 c 1,4,-1
 30 720 l 1,5,6
 180 547 180 547 180 286 c 0,7,8
 180 32 180 32 32 -140 c 1,9,-1
 -16 -140 l 1,0,1
EndSplineSet
Validated: 1
EndChar

StartChar: emdash
Encoding: 8212 8212 125
Width: 654
GlyphClass: 1
Flags: W
LayerCount: 2
Fore
SplineSet
618 235 m 1,0,-1
 36 235 l 1,1,-1
 36 280 l 1,2,-1
 618 280 l 1,3,-1
 618 235 l 1,0,-1
EndSplineSet
Validated: 1
EndChar

StartChar: endash
Encoding: 8211 8211 126
Width: 433
GlyphClass: 1
Flags: W
LayerCount: 2
Fore
SplineSet
397 236 m 1,0,-1
 36 236 l 1,1,-1
 36 281 l 1,2,-1
 397 281 l 1,3,-1
 397 236 l 1,0,-1
EndSplineSet
Validated: 1
EndChar

StartChar: hyphen
Encoding: 45 45 127
Width: 351
GlyphClass: 1
Flags: W
LayerCount: 2
Fore
SplineSet
322 353 m 1,0,-1
 29 353 l 1,1,-1
 29 396 l 1,2,-1
 322 396 l 1,3,-1
 322 353 l 1,0,-1
EndSplineSet
Validated: 1
EndChar

StartChar: guillemotleft
Encoding: 171 171 128
Width: 360
GlyphClass: 1
Flags: W
LayerCount: 2
Fore
SplineSet
314 82 m 1,0,-1
 263 82 l 1,1,-1
 152 241 l 1,2,-1
 263 400 l 1,3,-1
 314 400 l 1,4,-1
 214 241 l 1,5,-1
 314 82 l 1,0,-1
188 82 m 1,6,-1
 137 82 l 1,7,-1
 26 241 l 1,8,-1
 137 400 l 1,9,-1
 188 400 l 1,10,-1
 88 241 l 1,11,-1
 188 82 l 1,6,-1
EndSplineSet
Validated: 1
EndChar

StartChar: guillemotright
Encoding: 187 187 129
Width: 360
GlyphClass: 1
Flags: W
LayerCount: 2
Fore
SplineSet
146 241 m 1,0,-1
 46 400 l 1,1,-1
 97 400 l 1,2,-1
 208 241 l 1,3,-1
 97 82 l 1,4,-1
 46 82 l 1,5,-1
 146 241 l 1,0,-1
273 241 m 1,6,-1
 172 400 l 1,7,-1
 223 400 l 1,8,-1
 334 241 l 1,9,-1
 223 82 l 1,10,-1
 172 82 l 1,11,-1
 273 241 l 1,6,-1
EndSplineSet
Validated: 1
EndChar

StartChar: guilsinglleft
Encoding: 8249 8249 130
Width: 234
GlyphClass: 1
Flags: W
LayerCount: 2
Fore
SplineSet
188 82 m 1,0,-1
 137 82 l 1,1,-1
 26 241 l 1,2,-1
 137 400 l 1,3,-1
 188 400 l 1,4,-1
 88 241 l 1,5,-1
 188 82 l 1,0,-1
EndSplineSet
Validated: 1
EndChar

StartChar: guilsinglright
Encoding: 8250 8250 131
Width: 234
GlyphClass: 1
Flags: W
LayerCount: 2
Fore
SplineSet
147 241 m 1,0,-1
 46 400 l 1,1,-1
 97 400 l 1,2,-1
 208 241 l 1,3,-1
 97 82 l 1,4,-1
 46 82 l 1,5,-1
 147 241 l 1,0,-1
EndSplineSet
Validated: 1
EndChar

StartChar: quotedblbase
Encoding: 8222 8222 132
Width: 191
GlyphClass: 1
Flags: W
LayerCount: 2
Fore
SplineSet
81 0 m 2,0,1
 81 -82 81 -82 23 -82 c 1,2,-1
 23 -55 l 1,3,4
 51 -55 51 -55 51 0 c 1,5,-1
 23 0 l 1,6,-1
 23 58 l 1,7,-1
 81 58 l 1,8,-1
 81 0 l 2,0,1
168 0 m 2,9,10
 168 -82 168 -82 110 -82 c 1,11,-1
 110 -55 l 1,12,13
 139 -55 139 -55 139 0 c 1,14,-1
 110 0 l 1,15,-1
 110 58 l 1,16,-1
 168 58 l 1,17,-1
 168 0 l 2,9,10
EndSplineSet
Validated: 1
EndChar

StartChar: quotedblleft
Encoding: 8220 8220 133
Width: 208
GlyphClass: 1
Flags: W
LayerCount: 2
Fore
SplineSet
82 625 m 1,0,-1
 82 567 l 1,1,-1
 24 567 l 1,2,-1
 24 625 l 2,3,4
 24 706 24 706 82 706 c 1,5,-1
 82 679 l 1,6,7
 54 679 54 679 54 625 c 1,8,-1
 82 625 l 1,0,-1
183 625 m 1,9,-1
 183 567 l 1,10,-1
 125 567 l 1,11,-1
 125 625 l 2,12,13
 125 706 125 706 183 706 c 1,14,-1
 183 679 l 1,15,16
 155 679 155 679 155 625 c 1,17,-1
 183 625 l 1,9,-1
EndSplineSet
Validated: 1
EndChar

StartChar: quotedblright
Encoding: 8221 8221 134
Width: 205
GlyphClass: 1
Flags: W
LayerCount: 2
Fore
SplineSet
85 644 m 2,0,1
 85 562 85 562 27 562 c 1,2,-1
 27 589 l 1,3,4
 55 589 55 589 55 644 c 1,5,-1
 27 644 l 1,6,-1
 27 701 l 1,7,-1
 85 701 l 1,8,-1
 85 644 l 2,0,1
186 644 m 2,9,10
 186 562 186 562 128 562 c 1,11,-1
 128 589 l 1,12,13
 156 589 156 589 156 644 c 1,14,-1
 128 644 l 1,15,-1
 128 701 l 1,16,-1
 186 701 l 1,17,-1
 186 644 l 2,9,10
EndSplineSet
Validated: 1
EndChar

StartChar: quoteleft
Encoding: 8216 8216 135
Width: 107
GlyphClass: 1
Flags: W
LayerCount: 2
Fore
SplineSet
82 625 m 1,0,-1
 82 567 l 1,1,-1
 24 567 l 1,2,-1
 24 625 l 2,3,4
 24 706 24 706 82 706 c 1,5,-1
 82 679 l 1,6,7
 54 679 54 679 54 625 c 1,8,-1
 82 625 l 1,0,-1
EndSplineSet
Validated: 1
EndChar

StartChar: quoteright
Encoding: 8217 8217 136
Width: 103
GlyphClass: 1
Flags: W
LayerCount: 2
Fore
SplineSet
84 642 m 2,0,1
 84 560 84 560 26 560 c 1,2,-1
 26 587 l 1,3,4
 54 587 54 587 54 642 c 1,5,-1
 26 642 l 1,6,-1
 26 699 l 1,7,-1
 84 699 l 1,8,-1
 84 642 l 2,0,1
EndSplineSet
Validated: 1
EndChar

StartChar: quotesinglbase
Encoding: 8218 8218 137
Width: 104
GlyphClass: 1
Flags: W
LayerCount: 2
Fore
SplineSet
81 0 m 2,0,1
 81 -82 81 -82 23 -82 c 1,2,-1
 23 -55 l 1,3,4
 51 -55 51 -55 51 0 c 1,5,-1
 23 0 l 1,6,-1
 23 58 l 1,7,-1
 81 58 l 1,8,-1
 81 0 l 2,0,1
EndSplineSet
Validated: 1
EndChar

StartChar: A
Encoding: 65 65 139
Width: 385
GlyphClass: 1
Flags: W
LayerCount: 2
Fore
SplineSet
205 699 m 1,0,-1
 379 0 l 1,1,-1
 314 0 l 1,2,-1
 290 98 l 1,3,-1
 95 98 l 1,4,-1
 70 0 l 1,5,-1
 6 0 l 1,6,-1
 179 699 l 1,7,-1
 205 699 l 1,0,-1
274 161 m 1,8,-1
 193 489 l 1,9,-1
 110 161 l 1,10,-1
 274 161 l 1,8,-1
EndSplineSet
Validated: 1
EndChar

StartChar: currency
Encoding: 164 164 140
Width: 416
GlyphClass: 1
Flags: W
LayerCount: 2
Fore
SplineSet
76 453 m 1,0,1
 84 482 84 482 96 508 c 128,-1,2
 108 534 108 534 122 557 c 256,3,4
 136 580 136 580 153 599.5 c 128,-1,5
 170 619 170 619 189 636 c 0,6,7
 228 669 228 669 271 686 c 0,8,9
 316 703 316 703 364 703 c 0,10,11
 380 703 380 703 381 702 c 2,12,-1
 381 641 l 1,13,14
 380 642 380 642 364 642 c 0,15,16
 326 642 326 642 293 629 c 0,17,18
 257 615 257 615 228 593 c 0,19,20
 198 572 198 572 173 537 c 0,21,22
 161 520 161 520 151.5 501.5 c 128,-1,23
 142 483 142 483 135 463 c 2,24,-1
 131 453 l 1,25,-1
 301 453 l 1,26,-1
 301 400 l 1,27,-1
 119 400 l 1,28,29
 115 388 115 388 115 349 c 0,30,31
 115 332 115 332 116 331 c 2,32,-1
 301 331 l 1,33,-1
 301 278 l 1,34,-1
 123 278 l 1,35,36
 133 231 133 231 156 190 c 0,37,38
 167 170 167 170 180.5 152 c 128,-1,39
 194 134 194 134 210 120 c 0,40,41
 241 90 241 90 281 74 c 0,42,43
 321 57 321 57 364 57 c 2,44,-1
 381 57 l 1,45,-1
 381 -4 l 2,46,47
 380 -5 380 -5 364 -5 c 0,48,49
 310 -5 310 -5 262 17 c 0,50,51
 214 37 214 37 174 76 c 0,52,53
 135 113 135 113 108 166 c 0,54,55
 79 217 79 217 69 278 c 1,56,-1
 27 278 l 1,57,-1
 27 331 l 1,58,-1
 64 331 l 1,59,60
 63 332 63 332 63 349 c 0,61,62
 63 374 63 374 66 400 c 1,63,-1
 27 400 l 1,64,-1
 27 453 l 1,65,-1
 76 453 l 1,0,1
EndSplineSet
Validated: 1
EndChar

StartChar: dollar
Encoding: 36 36 141
Width: 474
GlyphClass: 1
Flags: W
LayerCount: 2
Fore
SplineSet
266 -73 m 1,0,-1
 211 -73 l 1,1,-1
 211 2 l 1,2,3
 93 29 93 29 26 111 c 1,4,-1
 71 148 l 1,5,6
 142 53 142 53 247 53 c 0,7,8
 279 53 279 53 305 63 c 0,9,10
 333 72 333 72 352 90 c 0,11,12
 372 108 372 108 382 133 c 0,13,14
 393 158 393 158 393 187 c 0,15,16
 392 227 392 227 360 266 c 0,17,18
 325 305 325 305 258 339 c 2,19,-1
 210 363 l 2,20,21
 161 388 161 388 128 411 c 0,22,23
 112 422 112 422 99.5 433 c 128,-1,24
 87 444 87 444 79 455 c 0,25,26
 61 478 61 478 55 499 c 0,27,28
 49 521 49 521 49 546 c 2,29,-1
 49 550 l 2,30,31
 49 580 49 580 61 609 c 0,32,33
 71 635 71 635 93 657 c 0,34,35
 115 677 115 677 143 689 c 0,36,37
 173 700 173 700 207 700 c 2,38,-1
 211 700 l 1,39,-1
 211 768 l 1,40,-1
 266 768 l 1,41,-1
 266 693 l 1,42,43
 344 670 344 670 380 621 c 1,44,-1
 338 589 l 1,45,46
 264 642 264 642 216 642 c 0,47,48
 164 642 164 642 135 617 c 0,49,50
 104 591 104 591 103 547 c 1,51,52
 114 461 114 461 256 401 c 2,53,-1
 289 387 l 2,54,55
 299 382 299 382 307 378 c 0,56,57
 311 376 311 376 314.5 374 c 128,-1,58
 318 372 318 372 322 371 c 1,59,-1
 321 371 l 1,60,61
 450 296 450 296 450 190 c 0,62,63
 450 155 450 155 436 119 c 0,64,65
 421 84 421 84 396 59 c 0,66,67
 371 32 371 32 338 16 c 0,68,69
 303 -1 303 -1 266 -2 c 1,70,-1
 266 -73 l 1,0,-1
EndSplineSet
Validated: 1
EndChar

StartChar: Euro
Encoding: 8364 8364 142
Width: 416
GlyphClass: 1
Flags: W
LayerCount: 2
Fore
SplineSet
76 453 m 1,0,-1
 86 487 l 2,1,2
 95 511 95 511 107 533 c 128,-1,3
 119 555 119 555 133 575 c 256,4,5
 147 595 147 595 163 612.5 c 128,-1,6
 179 630 179 630 198 644 c 0,7,8
 232 671 232 671 277 688 c 0,9,10
 319 703 319 703 364 703 c 0,11,12
 380 703 380 703 381 702 c 2,13,-1
 381 641 l 1,14,15
 380 642 380 642 364 642 c 0,16,17
 324 642 324 642 291 629 c 0,18,19
 256 616 256 616 225 591 c 0,20,21
 194 568 194 568 171 535 c 256,22,23
 148 502 148 502 135 463 c 2,24,-1
 131 453 l 1,25,-1
 301 453 l 1,26,-1
 301 400 l 1,27,-1
 119 400 l 1,28,29
 115 388 115 388 115 349 c 0,30,31
 115 332 115 332 116 331 c 2,32,-1
 301 331 l 1,33,-1
 301 278 l 1,34,-1
 123 278 l 1,35,36
 128 255 128 255 136 233 c 128,-1,37
 144 211 144 211 155 191 c 256,38,39
 166 171 166 171 179.5 153 c 128,-1,40
 193 135 193 135 209 121 c 0,41,42
 225 106 225 106 242.5 94 c 128,-1,43
 260 82 260 82 280 74 c 0,44,45
 320 57 320 57 364 57 c 2,46,-1
 381 57 l 1,47,-1
 381 -4 l 2,48,49
 380 -5 380 -5 364 -5 c 0,50,51
 312 -5 312 -5 261 18 c 0,52,53
 211 41 211 41 171 79 c 0,54,55
 131 116 131 116 104 169 c 0,56,57
 76 221 76 221 69 278 c 1,58,-1
 27 278 l 1,59,-1
 27 331 l 1,60,-1
 63 331 l 1,61,-1
 63 349 l 2,62,63
 63 374 63 374 66 400 c 1,64,-1
 27 400 l 1,65,-1
 27 453 l 1,66,-1
 76 453 l 1,0,-1
EndSplineSet
Validated: 1
EndChar

StartChar: asciitilde
Encoding: 126 126 143
Width: 513
GlyphClass: 1
Flags: W
LayerCount: 2
Fore
SplineSet
468 352 m 1,0,1
 460 224 460 224 349 224 c 0,2,3
 300 224 300 224 248 266 c 0,4,5
 199 306 199 306 165 306 c 0,6,7
 101 306 101 306 95 229 c 1,8,-1
 47 229 l 1,9,10
 53 357 53 357 166 357 c 0,11,12
 215 357 215 357 264 317 c 0,13,14
 316 274 316 274 351 274 c 0,15,16
 412 274 412 274 421 352 c 1,17,-1
 468 352 l 1,0,1
EndSplineSet
Validated: 1
EndChar

StartChar: equal
Encoding: 61 61 144
Width: 290
GlyphClass: 1
Flags: W
LayerCount: 2
Fore
SplineSet
241 357 m 1,0,-1
 49 357 l 1,1,-1
 49 396 l 1,2,-1
 241 396 l 1,3,-1
 241 357 l 1,0,-1
241 257 m 1,4,-1
 49 257 l 1,5,-1
 49 295 l 1,6,-1
 241 295 l 1,7,-1
 241 257 l 1,4,-1
EndSplineSet
Validated: 1
EndChar

StartChar: greater
Encoding: 62 62 145
Width: 310
GlyphClass: 1
Flags: W
LayerCount: 2
Fore
SplineSet
52 400 m 1,0,-1
 283 262 l 1,1,-1
 283 228 l 1,2,-1
 52 89 l 1,3,-1
 52 141 l 1,4,-1
 227 246 l 1,5,-1
 52 350 l 1,6,-1
 52 400 l 1,0,-1
EndSplineSet
Validated: 1
EndChar

StartChar: less
Encoding: 60 60 146
Width: 310
GlyphClass: 1
Flags: W
LayerCount: 2
Fore
SplineSet
258 350 m 1,0,-1
 82 246 l 1,1,-1
 258 141 l 1,2,-1
 258 89 l 1,3,-1
 27 228 l 1,4,-1
 27 262 l 1,5,6
 35 267 35 267 47 273.5 c 128,-1,7
 59 280 59 280 73 290 c 0,8,9
 87 299 87 299 105.5 310 c 128,-1,10
 124 321 124 321 147 334 c 2,11,-1
 258 400 l 1,12,-1
 258 350 l 1,0,-1
EndSplineSet
Validated: 1
EndChar

StartChar: logicalnot
Encoding: 172 172 147
Width: 419
GlyphClass: 1
Flags: W
LayerCount: 2
Fore
SplineSet
370 292 m 1,0,-1
 370 149 l 1,1,-1
 322 149 l 1,2,-1
 322 245 l 1,3,-1
 49 245 l 1,4,-1
 49 292 l 1,5,-1
 370 292 l 1,0,-1
EndSplineSet
Validated: 1
EndChar

StartChar: multiply
Encoding: 215 215 148
Width: 419
GlyphClass: 1
Flags: W
LayerCount: 2
Fore
SplineSet
343 167 m 1,0,-1
 209 301 l 1,1,-1
 76 167 l 1,2,-1
 38 204 l 1,3,-1
 172 338 l 1,4,-1
 38 473 l 1,5,-1
 76 510 l 1,6,-1
 209 375 l 1,7,-1
 343 510 l 1,8,-1
 381 473 l 1,9,-1
 247 338 l 1,10,-1
 381 204 l 1,11,-1
 343 167 l 1,0,-1
EndSplineSet
Validated: 1
EndChar

StartChar: percent
Encoding: 37 37 149
Width: 688
GlyphClass: 1
Flags: W
LayerCount: 2
Fore
SplineSet
662 186 m 256,0,1
 662 -3 662 -3 530 -3 c 0,2,3
 396 -3 396 -3 396 186 c 256,4,5
 396 375 396 375 530 375 c 0,6,7
 662 375 662 375 662 186 c 256,0,1
454 186 m 256,8,9
 454 51 454 51 530 51 c 0,10,11
 604 51 604 51 604 186 c 256,12,13
 604 321 604 321 530 321 c 0,14,15
 454 321 454 321 454 186 c 256,8,9
292 515 m 256,16,17
 292 326 292 326 159 326 c 256,18,19
 26 326 26 326 26 515 c 256,20,21
 26 704 26 704 159 704 c 256,22,23
 292 704 292 704 292 515 c 256,16,17
84 515 m 256,24,25
 84 380 84 380 159 380 c 256,26,27
 234 380 234 380 234 515 c 256,28,29
 234 650 234 650 159 650 c 256,30,31
 84 650 84 650 84 515 c 256,24,25
470 701 m 1,32,-1
 524 701 l 1,33,-1
 211 0 l 1,34,-1
 157 0 l 1,35,-1
 470 701 l 1,32,-1
EndSplineSet
Validated: 1
EndChar

StartChar: perthousand
Encoding: 8240 8240 150
Width: 991
GlyphClass: 1
Flags: W
LayerCount: 2
Fore
SplineSet
662 186 m 256,0,1
 662 -3 662 -3 530 -3 c 0,2,3
 396 -3 396 -3 396 186 c 256,4,5
 396 375 396 375 530 375 c 0,6,7
 662 375 662 375 662 186 c 256,0,1
454 186 m 256,8,9
 454 51 454 51 530 51 c 0,10,11
 604 51 604 51 604 186 c 256,12,13
 604 321 604 321 530 321 c 0,14,15
 454 321 454 321 454 186 c 256,8,9
292 515 m 256,16,17
 292 326 292 326 159 326 c 256,18,19
 26 326 26 326 26 515 c 256,20,21
 26 704 26 704 159 704 c 256,22,23
 292 704 292 704 292 515 c 256,16,17
84 515 m 256,24,25
 84 380 84 380 159 380 c 256,26,27
 234 380 234 380 234 515 c 256,28,29
 234 650 234 650 159 650 c 256,30,31
 84 650 84 650 84 515 c 256,24,25
470 701 m 1,32,-1
 524 701 l 1,33,-1
 211 0 l 1,34,-1
 157 0 l 1,35,-1
 470 701 l 1,32,-1
965 186 m 256,36,37
 965 -3 965 -3 832 -3 c 256,38,39
 699 -3 699 -3 699 186 c 256,40,41
 699 375 699 375 832 375 c 256,42,43
 965 375 965 375 965 186 c 256,36,37
757 186 m 256,44,45
 757 51 757 51 832 51 c 256,46,47
 907 51 907 51 907 186 c 256,48,49
 907 321 907 321 832 321 c 256,50,51
 757 321 757 321 757 186 c 256,44,45
EndSplineSet
Validated: 1
EndChar

StartChar: plus
Encoding: 43 43 151
Width: 466
GlyphClass: 1
Flags: W
LayerCount: 2
Fore
SplineSet
254 581 m 1,0,-1
 254 395 l 1,1,-1
 440 395 l 1,2,-1
 440 353 l 1,3,-1
 254 353 l 1,4,-1
 254 167 l 1,5,-1
 212 167 l 1,6,-1
 212 353 l 1,7,-1
 26 353 l 1,8,-1
 26 395 l 1,9,-1
 212 395 l 1,10,-1
 212 581 l 1,11,-1
 254 581 l 1,0,-1
EndSplineSet
Validated: 1
EndChar

StartChar: plusminus
Encoding: 177 177 152
Width: 381
GlyphClass: 1
Flags: W
LayerCount: 2
Fore
SplineSet
337 244 m 1,0,-1
 213 244 l 1,1,-1
 213 117 l 1,2,-1
 170 117 l 1,3,-1
 170 244 l 1,4,-1
 44 244 l 1,5,-1
 44 286 l 1,6,-1
 170 286 l 1,7,-1
 170 412 l 1,8,-1
 213 412 l 1,9,-1
 213 286 l 1,10,-1
 337 286 l 1,11,-1
 337 244 l 1,0,-1
337 0 m 1,12,-1
 44 0 l 1,13,-1
 44 42 l 1,14,-1
 337 42 l 1,15,-1
 337 0 l 1,12,-1
EndSplineSet
Validated: 1
EndChar

StartChar: bar
Encoding: 124 124 153
Width: 136
GlyphClass: 1
Flags: W
LayerCount: 2
Fore
SplineSet
45 -71 m 1,0,-1
 45 778 l 1,1,-1
 91 778 l 1,2,-1
 91 -71 l 1,3,-1
 45 -71 l 1,0,-1
EndSplineSet
Validated: 1
EndChar

StartChar: brokenbar
Encoding: 166 166 154
Width: 143
GlyphClass: 1
Flags: W
LayerCount: 2
Fore
SplineSet
49 410 m 1,0,-1
 49 776 l 1,1,-1
 95 776 l 1,2,-1
 95 410 l 1,3,-1
 49 410 l 1,0,-1
48 -60 m 1,4,-1
 48 306 l 1,5,-1
 94 306 l 1,6,-1
 94 -60 l 1,7,-1
 48 -60 l 1,4,-1
EndSplineSet
Validated: 1
EndChar

StartChar: at
Encoding: 64 64 155
Width: 649
GlyphClass: 1
Flags: W
LayerCount: 2
Fore
SplineSet
506 115 m 0,0,1
 439 115 439 115 413 186 c 1,2,3
 375 148 375 148 302 148 c 0,4,5
 243 148 243 148 208 195 c 256,6,7
 173 242 173 242 173 316 c 0,8,9
 173 351 173 351 185 381 c 0,10,11
 195 409 195 409 217 433 c 0,12,13
 227 444 227 444 238.5 452.5 c 128,-1,14
 250 461 250 461 264 468 c 0,15,16
 291 480 291 480 323 480 c 0,17,18
 357 480 357 480 410 451 c 1,19,-1
 410 485 l 1,20,-1
 459 485 l 1,21,-1
 459 220 l 2,22,23
 459 161 459 161 509 161 c 0,24,25
 524 161 524 161 537 174 c 0,26,27
 548 186 548 186 559 210 c 0,28,29
 568 233 568 233 574 262 c 0,30,31
 576 277 576 277 577.5 293 c 128,-1,32
 579 309 579 309 579 326 c 0,33,34
 579 391 579 391 563 440 c 0,35,36
 546 490 546 490 515 526 c 0,37,38
 484 560 484 560 438 580 c 0,39,40
 394 599 394 599 335 599 c 0,41,42
 280 599 280 599 235 577 c 0,43,44
 188 554 188 554 153 516 c 0,45,46
 117 477 117 477 98 428 c 0,47,48
 77 377 77 377 77 321 c 0,49,50
 77 258 77 258 96 208 c 0,51,52
 114 156 114 156 148 121 c 0,53,54
 181 83 181 83 229 64 c 0,55,56
 277 44 277 44 333 44 c 0,57,58
 399 44 399 44 455 59 c 1,59,-1
 455 12 l 1,60,61
 398 0 398 0 333 0 c 256,62,63
 268 0 268 0 213 24 c 256,64,65
 158 48 158 48 119 91 c 0,66,67
 80 131 80 131 57 192 c 0,68,69
 34 252 34 252 34 322 c 0,70,71
 34 389 34 389 58 448 c 0,72,73
 80 506 80 506 122 551 c 0,74,75
 162 594 162 594 217 619 c 0,76,77
 271 644 271 644 335 644 c 0,78,79
 402 644 402 644 453 622 c 0,80,81
 506 599 506 599 544 558 c 0,82,83
 581 517 581 517 602 458 c 0,84,85
 622 398 622 398 622 328 c 0,86,87
 622 285 622 285 614 245 c 0,88,89
 605 205 605 205 590 177 c 0,90,91
 573 148 573 148 553 132 c 0,92,93
 530 115 530 115 506 115 c 0,0,1
410 398 m 1,94,95
 351 425 351 425 329 425 c 0,96,97
 223 425 223 425 223 312 c 0,98,99
 223 196 223 196 317 196 c 0,100,101
 365 196 365 196 410 232 c 1,102,-1
 410 398 l 1,94,95
EndSplineSet
Validated: 1
EndChar

StartChar: ampersand
Encoding: 38 38 156
Width: 614
GlyphClass: 1
Flags: W
LayerCount: 2
Fore
SplineSet
463 336 m 1,0,-1
 387 336 l 1,1,-1
 387 392 l 1,2,-1
 594 392 l 1,3,-1
 594 336 l 1,4,-1
 518 336 l 1,5,-1
 518 22 l 1,6,-1
 516 21 l 1,7,8
 443 -5 443 -5 385 -5 c 0,9,10
 312 -5 312 -5 249 23 c 0,11,12
 184 50 184 50 136 98 c 0,13,14
 89 145 89 145 60 211 c 256,15,16
 31 277 31 277 31 349 c 256,17,18
 31 421 31 421 59 484 c 0,19,20
 85 547 85 547 134 597 c 0,21,22
 182 645 182 645 247 674 c 0,23,24
 310 702 310 702 385 702 c 0,25,26
 443 702 443 702 516 676 c 1,27,-1
 516 616 l 1,28,29
 454 646 454 646 385 646 c 0,30,31
 331 646 331 646 280 626 c 0,32,33
 230 607 230 607 189 572 c 256,34,35
 148 537 148 537 123 491 c 0,36,37
 96 445 96 445 89 393 c 1,38,-1
 312 393 l 1,39,-1
 312 338 l 1,40,-1
 86 338 l 1,41,42
 88 279 88 279 111 228 c 256,43,44
 134 177 134 177 176 137 c 0,45,46
 217 96 217 96 270 74 c 0,47,48
 324 50 324 50 385 50 c 0,49,50
 414 50 414 50 463 61 c 1,51,-1
 463 336 l 1,0,-1
EndSplineSet
Validated: 1
EndChar

StartChar: paragraph
Encoding: 182 182 157
Width: 485
GlyphClass: 1
Flags: W
LayerCount: 2
Fore
SplineSet
193 311 m 1,0,1
 158 314 158 314 128 329 c 0,2,3
 98 342 98 342 74 366 c 0,4,5
 51 388 51 388 38 420 c 0,6,7
 24 451 24 451 24 485 c 2,8,-1
 24 493 l 2,9,10
 24 566 24 566 70 612 c 0,11,12
 115 659 115 659 200 660 c 2,13,-1
 425 661 l 1,14,-1
 425 -110 l 1,15,-1
 362 -110 l 1,16,-1
 362 599 l 1,17,-1
 258 599 l 1,18,-1
 258 -110 l 1,19,-1
 193 -110 l 1,20,-1
 193 311 l 1,0,1
EndSplineSet
Validated: 1
EndChar

StartChar: copyright
Encoding: 169 169 158
Width: 575
GlyphClass: 1
Flags: W
LayerCount: 2
Fore
SplineSet
543 250 m 0,0,1
 543 201 543 201 523 153 c 0,2,3
 502 106 502 106 467 71 c 256,4,5
 432 36 432 36 386 15 c 0,6,7
 339 -6 339 -6 288 -6 c 256,8,9
 237 -6 237 -6 189 14 c 0,10,11
 142 33 142 33 107 69 c 0,12,13
 71 104 71 104 52 151 c 0,14,15
 32 199 32 199 32 250 c 0,16,17
 32 300 32 300 52 348 c 0,18,19
 62 371 62 371 76 391.5 c 128,-1,20
 90 412 90 412 107 430 c 0,21,22
 142 465 142 465 188 486 c 0,23,24
 236 506 236 506 288 506 c 0,25,26
 339 506 339 506 387 486 c 0,27,28
 433 465 433 465 468 430 c 0,29,30
 502 395 502 395 523 348 c 0,31,32
 543 300 543 300 543 250 c 0,0,1
177 251 m 0,33,34
 177 225 177 225 188 200 c 0,35,36
 199 174 199 174 217 158 c 0,37,38
 234 140 234 140 260 129 c 0,39,40
 285 118 285 118 311 118 c 2,41,-1
 325 118 l 1,42,-1
 325 79 l 2,43,44
 324 78 324 78 311 78 c 0,45,46
 279 78 279 78 246 92 c 0,47,48
 214 105 214 105 191 129 c 0,49,50
 167 152 167 152 153 184 c 0,51,52
 138 215 138 215 138 251 c 0,53,54
 138 285 138 285 152 318 c 0,55,56
 165 348 165 348 190 373 c 0,57,58
 213 396 213 396 245 410 c 0,59,60
 278 424 278 424 311 424 c 0,61,62
 324 424 324 424 325 423 c 2,63,-1
 325 384 l 1,64,65
 324 385 324 385 311 385 c 0,66,67
 281 385 281 385 254 374 c 0,68,69
 228 362 228 362 212 343 c 0,70,71
 194 322 194 322 186 300 c 0,72,73
 177 276 177 276 177 251 c 0,33,34
491 251 m 0,74,75
 491 293 491 293 475 329 c 256,76,77
 459 365 459 365 430 394 c 256,78,79
 401 423 401 423 365 439 c 256,80,81
 329 455 329 455 287 455 c 256,82,83
 245 455 245 455 210 439 c 0,84,85
 174 423 174 423 145 394 c 256,86,87
 116 365 116 365 100 329 c 0,88,89
 83 290 83 290 83 251 c 0,90,91
 83 211 83 211 100 172 c 0,92,93
 108 153 108 153 119 137 c 128,-1,94
 130 121 130 121 144 107 c 0,95,96
 171 79 171 79 209 63 c 0,97,98
 248 46 248 46 287 46 c 0,99,100
 330 46 330 46 366 62 c 0,101,102
 403 78 403 78 431 106 c 0,103,104
 459 135 459 135 475 172 c 0,105,106
 491 208 491 208 491 251 c 0,74,75
EndSplineSet
Validated: 1
EndChar

StartChar: registered
Encoding: 174 174 159
Width: 574
GlyphClass: 1
Flags: W
LayerCount: 2
Fore
SplineSet
267 402 m 2,0,1
 276 401 276 401 285 398.5 c 128,-1,2
 294 396 294 396 302 392 c 0,3,4
 317 384 317 384 331 370 c 0,5,6
 344 356 344 356 351 338 c 0,7,8
 358 321 358 321 358 301 c 0,9,10
 358 285 358 285 354 273 c 0,11,12
 349 259 349 259 342 246 c 256,13,14
 335 233 335 233 324 224 c 0,15,16
 315 215 315 215 303 210 c 1,17,18
 304 210 304 210 312 195 c 2,19,-1
 324 172 l 2,20,21
 334 152 334 152 360 144 c 1,22,-1
 360 103 l 1,23,24
 308 118 308 118 296 143 c 2,25,-1
 285 166 l 2,26,27
 279 179 279 179 270 190 c 2,28,-1
 267 194 l 1,29,-1
 267 108 l 1,30,-1
 227 108 l 1,31,-1
 227 402 l 1,32,-1
 267 402 l 2,0,1
267 239 m 1,33,34
 274 239 274 239 283 245 c 0,35,36
 292 250 292 250 300 259 c 0,37,38
 307 266 307 266 314 278 c 0,39,40
 319 290 319 290 319 301 c 0,41,42
 319 342 319 342 282 357 c 2,43,-1
 267 363 l 1,44,-1
 267 239 l 1,33,34
542 250 m 0,45,46
 542 201 542 201 522 153 c 0,47,48
 501 106 501 106 466 71 c 256,49,50
 431 36 431 36 385 15 c 0,51,52
 338 -6 338 -6 287 -6 c 256,53,54
 236 -6 236 -6 190 15 c 0,55,56
 143 34 143 34 108 70 c 0,57,58
 72 105 72 105 52 152 c 0,59,60
 31 198 31 198 31 250 c 0,61,62
 31 301 31 301 52 348 c 0,63,64
 71 393 71 393 108 430 c 0,65,66
 143 465 143 465 190 486 c 0,67,68
 238 506 238 506 287 506 c 0,69,70
 338 506 338 506 386 486 c 0,71,72
 433 465 433 465 467 431 c 0,73,74
 500 398 500 398 522 349 c 0,75,76
 542 301 542 301 542 250 c 0,45,46
491 251 m 0,77,78
 491 292 491 292 475 328 c 0,79,80
 458 365 458 365 430 394 c 0,81,82
 401 422 401 422 364 439 c 0,83,84
 328 455 328 455 287 455 c 0,85,86
 244 455 244 455 208 439 c 0,87,88
 170 422 170 422 143 394 c 0,89,90
 115 366 115 366 99 329 c 0,91,92
 82 290 82 290 82 251 c 0,93,94
 82 208 82 208 98 172 c 0,95,96
 115 133 115 133 142 106 c 256,97,98
 169 79 169 79 208 62 c 0,99,100
 244 46 244 46 287 46 c 0,101,102
 326 46 326 46 365 63 c 0,103,104
 402 79 402 79 430 107 c 0,105,106
 458 134 458 134 475 172 c 0,107,108
 491 208 491 208 491 251 c 0,77,78
EndSplineSet
Validated: 1
EndChar

StartChar: section
Encoding: 167 167 160
Width: 477
GlyphClass: 1
Flags: WO
LayerCount: 2
Fore
SplineSet
148 -36 m 0,0,1
 89 -36 89 -36 28 1 c 1,2,-1
 28 82 l 1,3,4
 81 32 81 32 138 32 c 0,5,6
 160 32 160 32 184 40 c 0,7,8
 206 47 206 47 223 63 c 0,9,10
 231 70 231 70 237.5 78.5 c 128,-1,11
 244 87 244 87 249 98 c 0,12,13
 259 117 259 117 259 143 c 0,14,15
 257 190 257 190 201 270 c 2,16,-1
 149 342 l 2,17,18
 126 374 126 374 109 401.5 c 128,-1,19
 92 429 92 429 81 453 c 0,20,21
 58 501 58 501 58 536 c 0,22,23
 58 563 58 563 69 588 c 0,24,25
 80 614 80 614 98 630 c 0,26,27
 115 647 115 647 141 658 c 0,28,29
 164 668 164 668 193 668 c 1,30,31
 195 691 195 691 207 711 c 0,32,33
 220 732 220 732 237 746 c 0,34,35
 255 761 255 761 278 770 c 0,36,37
 302 778 302 778 324 778 c 0,38,39
 388 778 388 778 425 726 c 1,40,-1
 383 687 l 1,41,42
 345 716 345 716 313 716 c 0,43,44
 284 716 284 716 268 697 c 0,45,46
 251 677 251 677 251 651 c 0,47,48
 251 621 251 621 304 535 c 1,49,-1
 342 479 l 1,50,51
 421 344 421 344 423 344 c 2,52,-1
 424 344 l 1,53,-1
 423 345 l 1,54,55
 451 293 451 293 451 240 c 0,56,57
 451 178 451 178 413 132 c 0,58,59
 374 85 374 85 308 75 c 1,60,-1
 290 38 l 1,61,62
 245 -36 245 -36 148 -36 c 0,0,1
340 160 m 1,63,64
 392 193 392 193 392 252 c 0,65,66
 392 290 392 290 308 415 c 1,67,-1
 281 452 l 2,68,69
 267 472 267 472 254.5 491 c 128,-1,70
 242 510 242 510 232 529 c 0,71,72
 212 564 212 564 199 597 c 2,73,-1
 196 605 l 1,74,-1
 185 606 l 1,75,76
 118 606 118 606 118 542 c 0,77,78
 118 522 118 522 132 492 c 0,79,80
 145 463 145 463 171 426 c 2,81,-1
 223 350 l 2,82,83
 313 218 313 218 318 149 c 1,84,-1
 340 160 l 1,63,64
EndSplineSet
Validated: 5
EndChar

StartChar: trademark
Encoding: 8482 8482 161
Width: 492
GlyphClass: 1
Flags: W
LayerCount: 2
Fore
SplineSet
82 411 m 1,0,-1
 82 666 l 1,1,-1
 28 666 l 1,2,-1
 28 700 l 1,3,-1
 174 700 l 1,4,-1
 174 666 l 1,5,-1
 120 666 l 1,6,-1
 120 411 l 1,7,-1
 82 411 l 1,0,-1
263 700 m 1,8,-1
 312 525 l 1,9,-1
 361 700 l 1,10,-1
 380 700 l 1,11,-1
 461 411 l 1,12,-1
 422 411 l 1,13,-1
 370 594 l 1,14,-1
 320 411 l 1,15,-1
 304 411 l 1,16,-1
 253 594 l 1,17,-1
 202 411 l 1,18,-1
 163 411 l 1,19,-1
 244 700 l 1,20,-1
 263 700 l 1,8,-1
EndSplineSet
Validated: 1
EndChar

StartChar: degree
Encoding: 176 176 162
Width: 224
GlyphClass: 1
Flags: W
LayerCount: 2
Fore
SplineSet
213 675 m 0,0,1
 213 655 213 655 205 636 c 0,2,3
 198 618 198 618 183 603 c 256,4,5
 168 588 168 588 151 581 c 0,6,7
 130 573 130 573 112 573 c 0,8,9
 93 573 93 573 74 581 c 0,10,11
 56 588 56 588 41 603 c 256,12,13
 26 618 26 618 19 636 c 0,14,15
 11 655 11 655 11 675 c 0,16,17
 11 696 11 696 20 714 c 0,18,19
 27 731 27 731 42 746 c 256,20,21
 57 761 57 761 74 768 c 0,22,23
 93 776 93 776 112 776 c 256,24,25
 131 776 131 776 152 768 c 0,26,27
 170 759 170 759 184 745 c 0,28,29
 197 732 197 732 205 713 c 0,30,31
 213 692 213 692 213 675 c 0,0,1
171 675 m 0,32,33
 171 697 171 697 154 716 c 0,34,35
 135 733 135 733 112 733 c 0,36,37
 88 733 88 733 71 716 c 256,38,39
 54 699 54 699 54 675 c 0,40,41
 54 649 54 649 73 633 c 0,42,43
 92 616 92 616 112 616 c 0,44,45
 136 616 136 616 154 634 c 0,46,47
 171 651 171 651 171 675 c 0,32,33
EndSplineSet
Validated: 1
EndChar

StartChar: asciicircum
Encoding: 94 94 163
Width: 297
GlyphClass: 1
Flags: W
LayerCount: 2
Fore
SplineSet
266 685 m 1,0,-1
 242 647 l 1,1,-1
 149 726 l 1,2,-1
 55 647 l 1,3,-1
 31 685 l 1,4,-1
 149 781 l 1,5,-1
 266 685 l 1,0,-1
EndSplineSet
Validated: 1
EndChar

StartChar: dagger
Encoding: 8224 8224 164
Width: 466
GlyphClass: 1
Flags: W
LayerCount: 2
Fore
SplineSet
254 699 m 1,0,-1
 254 513 l 1,1,-1
 440 513 l 1,2,-1
 440 471 l 1,3,-1
 254 471 l 1,4,-1
 254 1 l 1,5,-1
 212 1 l 1,6,-1
 212 471 l 1,7,-1
 26 471 l 1,8,-1
 26 513 l 1,9,-1
 212 513 l 1,10,-1
 212 699 l 1,11,-1
 254 699 l 1,0,-1
EndSplineSet
Validated: 1
EndChar

StartChar: daggerdbl
Encoding: 8225 8225 165
Width: 478
GlyphClass: 1
Flags: W
LayerCount: 2
Fore
SplineSet
218 699 m 1,0,-1
 260 699 l 1,1,-1
 260 513 l 1,2,-1
 446 513 l 1,3,-1
 446 471 l 1,4,-1
 260 471 l 1,5,-1
 260 331 l 1,6,-1
 446 331 l 1,7,-1
 446 289 l 1,8,-1
 260 289 l 1,9,-1
 260 1 l 1,10,-1
 218 1 l 1,11,-1
 218 289 l 1,12,-1
 32 289 l 1,13,-1
 32 331 l 1,14,-1
 218 331 l 1,15,-1
 218 471 l 1,16,-1
 32 471 l 1,17,-1
 32 513 l 1,18,-1
 218 513 l 1,19,-1
 218 699 l 1,0,-1
EndSplineSet
Validated: 1
EndChar

StartChar: acute
Encoding: 180 180 166
Width: 300
GlyphClass: 1
Flags: W
LayerCount: 2
Fore
SplineSet
140 699 m 1,0,-1
 202 699 l 1,1,-1
 131 609 l 1,2,-1
 97 609 l 1,3,-1
 140 699 l 1,0,-1
EndSplineSet
Validated: 1
EndChar

StartChar: breve
Encoding: 728 728 167
Width: 300
GlyphClass: 1
Flags: W
LayerCount: 2
Fore
SplineSet
100 713 m 1,0,1
 101 689 101 689 113 674 c 0,2,3
 123 661 123 661 150 661 c 256,4,5
 177 661 177 661 187 674 c 0,6,7
 199 689 199 689 200 713 c 1,8,-1
 237 713 l 1,9,10
 237 658 237 658 215 633 c 0,11,12
 192 606 192 606 150 606 c 256,13,14
 108 606 108 606 86 633 c 0,15,16
 63 659 63 659 63 713 c 1,17,-1
 100 713 l 1,0,1
EndSplineSet
Validated: 1
EndChar

StartChar: caron
Encoding: 711 711 168
Width: 300
GlyphClass: 1
Flags: W
LayerCount: 2
Fore
SplineSet
173 600 m 1,0,-1
 126 600 l 1,1,-1
 67 700 l 1,2,-1
 115 700 l 1,3,-1
 149 650 l 1,4,-1
 183 700 l 1,5,-1
 232 700 l 1,6,-1
 173 600 l 1,0,-1
EndSplineSet
Validated: 1
EndChar

StartChar: cedilla
Encoding: 184 184 169
Width: 300
GlyphClass: 1
Flags: W
LayerCount: 2
Fore
SplineSet
166 -7 m 1,0,1
 217 -15 217 -15 217 -63 c 0,2,3
 217 -134 217 -134 124 -134 c 1,4,-1
 83 -132 l 1,5,-1
 83 -86 l 1,6,-1
 134 -89 l 2,7,8
 168 -89 168 -89 168 -63 c 0,9,10
 168 -40 168 -40 117 -40 c 1,11,-1
 117 17 l 1,12,-1
 166 17 l 1,13,-1
 166 -7 l 1,0,1
EndSplineSet
Validated: 1
EndChar

StartChar: dieresis
Encoding: 168 168 170
Width: 300
GlyphClass: 1
Flags: W
LayerCount: 2
Fore
SplineSet
181 628 m 1,0,-1
 181 701 l 1,1,-1
 245 701 l 1,2,-1
 245 628 l 1,3,-1
 181 628 l 1,0,-1
55 628 m 1,4,-1
 55 701 l 1,5,-1
 118 701 l 1,6,-1
 118 628 l 1,7,-1
 55 628 l 1,4,-1
EndSplineSet
Validated: 1
EndChar

StartChar: grave
Encoding: 96 96 171
Width: 300
GlyphClass: 1
Flags: W
LayerCount: 2
Fore
SplineSet
168 609 m 1,0,-1
 97 699 l 1,1,-1
 159 699 l 1,2,-1
 202 609 l 1,3,-1
 168 609 l 1,0,-1
EndSplineSet
Validated: 1
EndChar

StartChar: hungarumlaut
Encoding: 733 733 172
Width: 300
GlyphClass: 1
Flags: W
LayerCount: 2
Fore
SplineSet
132 609 m 1,0,-1
 188 702 l 1,1,-1
 247 702 l 1,2,-1
 166 609 l 1,3,-1
 132 609 l 1,0,-1
53 609 m 1,4,-1
 102 702 l 1,5,-1
 161 702 l 1,6,-1
 88 609 l 1,7,-1
 53 609 l 1,4,-1
EndSplineSet
Validated: 1
EndChar

StartChar: ogonek
Encoding: 731 731 173
Width: 300
GlyphClass: 1
Flags: W
LayerCount: 2
Fore
SplineSet
201 0 m 1,0,1
 144 -45 144 -45 144 -80 c 0,2,3
 144 -104 144 -104 174 -104 c 2,4,-1
 208 -104 l 1,5,-1
 208 -159 l 1,6,-1
 174 -159 l 2,7,8
 91 -159 91 -159 91 -96 c 0,9,10
 91 -49 91 -49 161 5 c 1,11,-1
 201 0 l 1,0,1
EndSplineSet
Validated: 1
EndChar

StartChar: softhyphen
Encoding: 173 173 174
Width: 351
GlyphClass: 1
Flags: W
LayerCount: 2
Fore
SplineSet
322 353 m 1,0,-1
 29 353 l 1,1,-1
 29 396 l 1,2,-1
 322 396 l 1,3,-1
 322 353 l 1,0,-1
EndSplineSet
Validated: 1
EndChar

StartChar: Aacute
Encoding: 193 193 175
Width: 385
GlyphClass: 1
Flags: W
LayerCount: 2
Fore
SplineSet
205 699 m 1,0,-1
 379 0 l 1,1,-1
 314 0 l 1,2,-1
 290 98 l 1,3,-1
 95 98 l 1,4,-1
 70 0 l 1,5,-1
 6 0 l 1,6,-1
 179 699 l 1,7,-1
 205 699 l 1,0,-1
274 161 m 1,8,-1
 193 489 l 1,9,-1
 110 161 l 1,10,-1
 274 161 l 1,8,-1
198 824 m 1,11,-1
 260 824 l 1,12,-1
 189 734 l 1,13,-1
 155 734 l 1,14,-1
 198 824 l 1,11,-1
EndSplineSet
Validated: 1
EndChar

StartChar: adieresis
Encoding: 228 228 176
Width: 385
Flags: W
LayerCount: 2
Fore
SplineSet
205 648 m 1,0,-1
 379 0 l 1,1,-1
 314 0 l 1,2,-1
 290 98 l 1,3,-1
 95 98 l 1,4,-1
 70 0 l 1,5,-1
 6 0 l 1,6,-1
 179 648 l 1,7,-1
 205 648 l 1,0,-1
274 161 m 1,8,-1
 193 464 l 1,9,-1
 110 161 l 1,10,-1
 274 161 l 1,8,-1
224 700 m 1,11,-1
 224 773 l 1,12,-1
 288 773 l 1,13,-1
 288 700 l 1,14,-1
 224 700 l 1,11,-1
98 700 m 1,15,-1
 98 773 l 1,16,-1
 161 773 l 1,17,-1
 161 700 l 1,18,-1
 98 700 l 1,15,-1
EndSplineSet
Validated: 1
EndChar

StartChar: odieresis
Encoding: 246 246 177
Width: 752
Flags: W
LayerCount: 2
Fore
SplineSet
730 349 m 260,0,1
 730 275 730 275 702 212 c 4,2,3
 673 146 673 146 626 99 c 4,4,5
 578 51 578 51 514 23 c 4,6,7
 451 -5 451 -5 376 -5 c 4,8,9
 303 -5 303 -5 240 23 c 4,10,11
 208 37 208 37 179.5 56 c 132,-1,12
 151 75 151 75 127 100 c 4,13,14
 102 124 102 124 83 152.5 c 132,-1,15
 64 181 64 181 50 213 c 4,16,17
 22 276 22 276 22 349 c 4,18,19
 22 423 22 423 50 486 c 4,20,21
 76 549 76 549 125 599 c 4,22,23
 172 646 172 646 238 675 c 4,24,25
 301 703 301 703 376 703 c 4,26,27
 450 703 450 703 513 675 c 4,28,29
 577 647 577 647 626 599 c 4,30,31
 674 550 674 550 702 486 c 4,32,33
 730 423 730 423 730 349 c 260,0,1
133 511 m 4,34,35
 83 437 83 437 83 349 c 4,36,37
 83 291 83 291 106 237 c 260,38,39
 129 183 129 183 168 144 c 4,40,41
 208 103 208 103 261 81 c 4,42,43
 313 57 313 57 376 57 c 4,44,45
 435 57 435 57 488 81 c 4,46,47
 540 103 540 103 581 144 c 4,48,49
 620 182 620 182 645 236 c 4,50,51
 668 290 668 290 668 349 c 4,52,53
 668 407 668 407 645 462 c 4,54,55
 621 514 621 514 582 555 c 4,56,57
 542 595 542 595 489 619 c 4,58,59
 435 642 435 642 376 642 c 4,60,61
 304 642 304 642 240 608 c 4,62,63
 174 573 174 573 133 511 c 4,34,35
407 754 m 5,64,-1
 407 827 l 5,65,-1
 471 827 l 5,66,-1
 471 754 l 5,67,-1
 407 754 l 5,64,-1
281 754 m 5,68,-1
 281 827 l 5,69,-1
 344 827 l 5,70,-1
 344 754 l 5,71,-1
 281 754 l 5,68,-1
EndSplineSet
Validated: 1
EndChar

StartChar: udieresis
Encoding: 252 252 178
Width: 468
Flags: W
LayerCount: 2
Fore
SplineSet
413 626 m 5,0,-1
 413 179 l 2,1,2
 413 143 413 143 399 111 c 0,3,4
 384 78 384 78 360 54 c 0,5,6
 334 28 334 28 303 15 c 0,7,8
 270 0 270 0 234 0 c 0,9,10
 203 -0 203 -0 166 15 c 0,11,12
 134 28 134 28 109 54 c 0,13,14
 83 80 83 80 70 111 c 0,15,16
 55 147 55 147 55 179 c 2,17,-1
 55 626 l 5,18,-1
 117 626 l 5,19,-1
 117 179 l 2,20,21
 117 179 117 179 126 135 c 0,22,23
 129 119 129 119 150 98 c 0,24,25
 165 83 165 83 187 72 c 0,26,27
 207 62 207 62 234 62 c 0,28,29
 259 62 259 62 280 72 c 0,30,31
 301 81 301 81 317 97 c 0,32,33
 337 115 337 115 343 134 c 0,34,35
 352 160 352 160 352 179 c 2,36,-1
 352 626 l 5,37,-1
 413 626 l 5,0,-1
265 681 m 5,38,-1
 265 754 l 5,39,-1
 329 754 l 5,40,-1
 329 681 l 5,41,-1
 265 681 l 5,38,-1
139 681 m 5,42,-1
 139 754 l 5,43,-1
 202 754 l 5,44,-1
 202 681 l 5,45,-1
 139 681 l 5,42,-1
EndSplineSet
Validated: 1
EndChar
